<svg xmlns="http://www.w3.org/2000/svg" xml:space="preserve" viewBox="0 0 196 195"><path fill="#010100" d="M138 196H1V1h196v195zm-58.243-55.083c.197.227.423.42 1.103.972.532.231 1.063.463 1.386 1.272-.073.95-.145 1.9-.364 3.515-1.908 1.702-3.816 3.404-5.915 4.611-2.361.63-4.722 1.258-7.612 1.85l-6.55 4.11c1.925 2.543 3.81 5.117 5.812 7.598.362.449 1.18.64 1.821.738 9.174 1.416 18.345 2.858 27.544 4.09.961.13 2.096-1.035 3.86-1.69 1.789-.344 3.576-.688 5.489-.337 4.472 1.537 18.035-1.855 20.571-5.145 3.317-4.303 3.009-5.677-2.338-8.869a21 21 0 0 1-2.552-1.543c-2.374-.517-4.748-1.035-7.54-2.079-1.345-1.052-2.691-2.104-4.293-3.794-1.041-1.386-2.082-2.771-2.665-4.27 0 0 .453-.13 1.12-.058 1.156-1.263 2.311-2.527 4.045-3.908 1.505-1.191 3.01-2.382 5-3.299 1.118-.57 2.234-1.14 3.293-1.715 0 0-.002.059.756-.044 3.397-1.66 6.793-3.318 10.594-4.755 4.573-3.708 9.147-7.417 14.258-11.335 3.166-2.365 6.34-4.718 9.495-7.097 8.94-6.74 19.202-10.42 30.485-13.17.511-.243 1.023-.487 2.108-.71l3.335-2.262c-1.671-.965-3.283-1.897-4.985-3.387-3.386-3.35-7.769-4.199-13.103-4.955-5.707.125-11.416.198-17.119.432-.873.036-1.715.817-3.306 1.275-5.361.758-10.722 1.515-17.04 2.047-3.6-.014-7.231.267-10.792-.116-4.738-.508-9.387-1.586-11.334-7.57-.87-.956-1.74-1.914-2.824-3.512-.845-.27-1.69-.539-2.906-1.208-.34.052-.68.103-1.289.044 0 0-.094-.276.327-.913 1.808-3.87.057-5.418-3.697-5.731 0 0 .067-.008.211-.704a379 379 0 0 1-2.097-7.87c-.68-2.466-1.36-4.931-1.707-7.91-1.52-3.468-1.395-7.91-5.533-10.304-3.436 6.238-4.135 13.681-11.564 16.374-.544.197-.597 1.75-1.124 3.242-.652.456-1.305.913-2.502 1.478-1.898 1.853-3.797 3.707-6.262 5.897-.186.117-.372.235-.905.43-.227.253-.454.506-1.405.99-.495.107-.99.214-2.156.347-1.622.625-3.245 1.249-5.539 1.907-2.113-.743-4.475-1.11-6.29-2.308-3.824-2.525-7.361-5.485-11.65-8.676-.11-3.364.699-7.081-4.019-9.395-2.687.349-5.609.159-7.995 1.199-2.354 1.026-3.282 3.348-1.032 5.449-2.563 2.514.505 3.107 1.594 4.754.234.268.468.536.634.908 0 0 .018.123-.603.419-.65.203-1.299.407-2.181.385-.36-.086-.625.036-1.646.462-15.974.887-23.584 9.464-22.21 25.242-.061.575-.123 1.15-.19 2.448.51 1.074 1.021 2.147 1.626 3.833.88 1.105 1.759 2.21 3.017 3.587 0 0 .466.029.577-.035 0 0-.062-.112-.003.464.328.158.657.317 1.014.416 0 0-.066-.006.027.612.307.277.614.554 1.195 1.393 3.61 2.243 7.22 4.487 11.33 7.196 4.933 1.948 9.867 3.897 14.238 6.265-.313.854-.626 1.707-1.11 3.128 1.794 2.009 3.319 4.477 5.53 5.77.75.438 3.236-2.093 5.457-3.663.799-1.514 1.597-3.029 3.034-4.432 1.411 1.264 2.823 2.528 4.214 4.543.632 5.378 4.874 7.133 9.646 9.324 3.153 1.608 6.306 3.216 9.798 5.336.548.19 1.097.378 1.639.505 0 0-.055.031-.282.611.259.315.518.63 1.046 1.301"/><path fill="#190F02" d="M64.024 73.842c1.622-.624 3.245-1.248 5.339-1.568.646.99.821 1.673.996 2.357.506-.28 1.012-.559 1.77-.751.43.109.607.13.937.325.602.007 1.05-.157 1.607-.34.107-.017.16-.23.194-.216.033.014.08-.04.41.128.802.009 1.275-.15 2.01-.342 1.743-2.151 3.226-4.27 4.96-6.37.411.067.572.115.798.446.683 1.266 1.3 2.249 1.621 3.316-.806.406-1.315.728-2.059 1.256-.64 1.133-1.044 2.06-1.47 3.004a.9.9 0 0 1-.215.11c-.388.352-.353.629-.093 1.2-.82 2.05-1.594 3.795-2.703 5.507-.943.99-1.553 2.013-2.33 3.32a45 45 0 0 1-5.523 3.597c-1.967.041-3.553.041-5.307-.298-1.47-.148-2.773.043-4.27.217-.196-.017-.563-.155-.536-.513-3.28-4.078-4.53-4.54-6.298-3.337-.163-.768-.516-.963-.967-1.388-.763-.478-1.43-.725-2.281-1.21-3.22-3.607-6.253-6.974-9.34-10.602-.143-.413-.232-.566-.394-.908-.072-.19-.098-.594-.062-.83.015-.575-.135-.84-.485-1.07-.07-.035-.187-.138-.166-.417-.599-2.345-1.218-4.41-2.165-7.574 1.667 1.239 2.282 1.696 2.824 2.444.205.767.482 1.242.971 2 7.74 4.504 12.931 13.222 23.746 12.392z"/><path fill="#8A5305" d="M100.133 168.073c-1.055.565-2.19 1.73-3.151 1.6-9.2-1.232-18.37-2.674-27.544-4.09-.64-.098-1.459-.29-1.821-.738-2.001-2.481-3.887-5.055-5.811-7.597 2.183-1.37 4.366-2.74 6.93-3.794 1.378 1.37 2.376 2.422 3.149 3.687-.435.972-.646 1.732-1.205 2.496-1.75-.199-3.15-.404-4.55-.608l-.183 1.248c5.854 2.113 11.528 5.027 18.6 3.567 2.744.388 5.083.746 7.777 1.187.834.046 1.314.01 2.075.003.462-.025.643-.08 1.127-.064.711.019 1.119-.034 1.8.101a79 79 0 0 1 2.807 3.002m-35.6-11.568s-.045.017 0 0"/><path fill="#2F1B03" d="M186.027 96.76c-10.75 2.555-21.013 6.234-29.952 12.975-3.155 2.379-6.33 4.732-9.9 6.92-.645-.966-.884-1.755-1.147-2.627-.024-.084-.101-.24.234-.19 1.137-.236 1.939-.522 3.05-.96 1.784-2.386 3.26-4.62 4.713-6.858-.022-.002.001.03.262-.105.755-.458 1.25-.78 1.94-.91.722-.556 1.251-1.304 1.983-2.076.203-.025.603-.111.88-.017 3.115-1.268 5.955-2.63 8.995-4.089-.872-.812-1.677-1.561-2.186-2.46 1.566-.488 2.837-.827 4.316-.99 1.132-.138 2.055-.454 3.413-.898 4.693-.116 8.951-.104 13.246.206.075.892.114 1.485.153 2.079"/><path fill="#C1871B" d="M40.782 70.188s.026.404-.033.7c-.152.507-.217.724-.685.933-2.936-.28-5.44-.542-8.2-.969-7.565-1.946-15.677 1.309-18.663 7.605-.699 1.473-.07 3.577-.098 5.766-.104 1.124-.162 1.872-.544 2.802-.425 2.498-.528 4.815-.929 7.09-.696-.106-1.094-.17-1.505-.221-.013.013-.037.03-.092-.272-.667-.778-1.279-1.254-1.89-1.729C6.58 76.537 14.19 67.96 30.855 67.051c.857-.086 1.022-.15 1.188-.215.65-.203 1.298-.407 2.595-.622 1.114.044 1.582.1 2.325.391 1.244.87 2.214 1.504 3.183 2.139 0 0 .117.103.173.367.118.571.254.842.463 1.077"/><path fill="#673C04" d="M41.348 118.075c-4.934-1.949-9.868-3.898-15.004-6.39.155-1.302.511-2.06 1.232-2.792 4.759 1.543 9.154 3.06 13.721 4.8 1.424.292 2.676.36 3.953.763.445 2.442 4.788 3.476 1.472 6.567-.763.369-1.271.71-1.755 1.454.932 4.157 3.376 1.55 5.167 1.648-1.693 1.174-4.178 3.705-4.928 3.267-2.212-1.293-3.737-3.761-5.102-6.1 1.658-.815 2.888-1.3 5.435-2.303z"/><path fill="#8F5805" d="M124.997 154.014c4.914 2.81 5.222 4.184 1.905 8.487-2.536 3.29-16.1 6.682-20.401 4.69.617-.96 1.064-1.466 1.842-2.052 1.364-.47 2.397-.86 3.804-1.2 1.522-.338 2.67-.727 4.186-1.137 2.99-.923 5.613-1.825 8.886-2.95-1.146-.588-1.675-.86-2.18-1.46.67-1.678 1.314-3.028 1.958-4.378"/><path fill="#B89125" d="M63.688 73.86c.795 1.156 1.254 2.33 1.855 3.867-10.815.83-16.007-7.888-23.39-12.44 1.394-.883 2.643-1.434 3.892-1.985 3.656 2.781 7.193 5.74 11.018 8.266 1.814 1.197 4.176 1.565 6.625 2.291"/><path fill="#5A350F" d="M40.167 68.465c-.99-.356-1.96-.99-3.412-1.991-1.02-.502-1.556-.637-2.092-.771-.235-.268-.469-.536-.536-1.246.924-1.12 1.68-1.799 2.61-2.632l-3.72-1.774c-2.9-2.007-1.973-4.329.381-5.355 2.386-1.04 5.308-.85 7.961-.916.009 1.244-.34 2.575.16 3.101 2.289 2.416 1.43 4.299-.62 6.162l-2.897-2.152c.947 3.163 1.566 5.23 2.165 7.574"/><path fill="#D9A117" d="M169.006 95.197c-1.27.339-2.541.678-4.507 1.197-3.926 1.009-7.155 1.838-10.706 2.589-.847-.45-1.374-.823-1.705-1.486a80 80 0 0 1 9.275-3.586c5.164-.273 9.93-.559 14.682-.992 1.367-.125 2.695-.676 4.445-.952 2.476-.348 4.547-.775 6.618-1.202l4.895 2.828c-1.212.822-2.273 1.542-3.755 2a50 50 0 0 0-2.41-1.21c-4.259-.012-8.517-.024-13.539-.033-1.606.284-2.45.565-3.293.847"/><path fill="#3D2603" d="M77.015 137.988c-3.153-1.608-6.306-3.216-9.737-5.418-.224-1.16-.17-1.726.213-2.056 4.07.922 7.812 1.608 11.958 2.358 5.66-.517 9.068 3.417 13.304 5.552-.068.504-.001.764-.16.962-1.1-.003-1.835.02-2.924-.084-3.481-.3-6.608-.474-9.985-.558a25 25 0 0 0-.746.292s.055-.03-.01-.255c-.682-.413-1.297-.603-1.913-.793"/><path fill="#704806" d="M114.348 81.989c1.923 5.314 6.572 6.392 11.31 6.9 3.56.383 7.192.102 10.888.46-6.147.14-12.391-.065-18.908-.436-1.176.088-2.079.342-3.224.435-.6-.312-.958-.464-1.587-.857-1.465-.341-2.657-.442-4.217-.576-.85.033-1.335.1-2.171.129-.822.008-1.293.053-1.959.021-.194-.076-.61-.115-.746-.39-.917-.856-1.699-1.438-2.555-2.075 1.29-.617 2.259-1.08 3.658-1.491 3.457-.671 6.484-1.396 9.51-2.12"/><path fill="#F4EEC7" d="M117.911 89.08c6.244.204 12.488.41 19.114.383a276 276 0 0 1 17.063-2.405c1.055.293 1.51.486 1.66.863-1.47 1.15-2.633 2.118-4.052 2.964-.769-.354-1.283-.585-2.213-.89-8.734.667-17.054 1.397-25.37 2.177-.409.038-.778.506-1.417.836-.413.118-.576.174-1.01.143-.45-.155-.629-.222-.81-.623-.99-1.371-1.977-2.41-2.965-3.448"/><path fill="#744E07" d="M82.367 62.258c.281-.923.334-2.476.878-2.673 7.429-2.693 8.128-10.136 11.564-16.374 4.138 2.395 4.013 6.836 5.231 10.392-.447-.176-.661-.36-1.046-.836-1.125-2.736-2.148-5.102-3.666-8.611-.669 3.46-1.088 5.632-1.707 8.104-.92 3.69-1.642 7.08-2.743 10.56-1.365-.31-2.373-1.072-3.33-1.012-1.13.07-2.216.85-3.529 1.468-.69-.242-1.17-.63-1.652-1.018"/><path fill="#CE9619" d="M99.096 53.137c.283.105.497.29.778.722.815 2.634 1.495 5.1 2.056 8.151-.434 2.36-.749 4.134-1.467 5.95-2.53-.334-4.656-.71-6.687-1.361-.032-.796-.16-1.315-.437-2.11-.793-.77-1.438-1.264-2.082-1.757.722-3.391 1.444-6.782 2.453-10.062.234 1.429-.028 2.78.18 4.055.32 1.967.806 3.95 1.599 5.76.153.352 2.928.112 2.973-.133.365-2 .372-4.067.483-6.113.056-1.034.101-2.068.151-3.102"/><path fill="#784606" d="M27.212 108.865a33 33 0 0 0-1.118 2.588c-3.657-1.933-7.267-4.177-11.127-6.982-.512-.857-.775-1.153-1.038-1.449 0 0 .066.006-.09-.17-.369-.438-.623-.65-.917-.816 0 0 .062.112-.04-.005-.333-.385-.583-.385-.854-.12-.88-1.104-1.759-2.21-2.511-3.617.126-.301.475-.282.52-.206.045.077.255.085.255.085s-.282-.18-.283-.59c.042-1.508.086-2.605.13-3.702.397.064.795.128 1.647.527 2.958 5.346 6.358 9.466 11.917 11.918 1.315 1.02 2.412 1.78 3.51 2.54"/><path fill="#736022" d="M117.194 134.407c-1.505 1.191-3.01 2.382-4.985 3.426-.754-.371-1.039-.595-1.29-1.222 1.262-7.858 4.154-11.151 10.3-11.973-.676 1.824-3.881 3.849.582 4.808-.3 1.414-.566 2.496-.831 3.579 0 0 .002-.059-.27-.018-1.351.493-2.429.947-3.506 1.4"/><path fill="#DAA010" d="M114.336 81.654c-3.015 1.06-6.042 1.784-9.396 2.07-1.436-1.513-2.381-3.135-3.695-3.53-1.773-.533-3.83-.121-5.51-.452 7.91-1.653 8.111-2.02 5.173-9.26-.061-.15-.1-.308.25-.549 1.215-.038 2.03.01 2.844.058 0 0-.067.008.038.37 1.127 2.242 2.15 4.124 3.171 6.006 0 0 .094.276.263.322.168.045.112.089-.024.236-.136.146.058.497-.087.71.126.55.396.885.988 1.192 1.336-.146 2.35-.262 3.363-.379.87.957 1.74 1.915 2.622 3.206"/><path fill="#3E3716" d="M145.053 114.112c.238.788.477 1.577.852 2.648-4.436 3.99-9.01 7.699-13.933 11.007-.987-1.241-1.625-2.082-2.113-3.208.59-1.027 1.029-1.769 1.793-2.562 3.298-2.09 6.27-4.129 9.566-6.21 1.493-.588 2.664-1.132 3.835-1.675"/><path fill="#C4850A" d="M57.93 123.088a328 328 0 0 1-4.572-4.15c-.331-.561-.325-.763.003-1.063.103-3.418-.115-6.738-.104-9.814 1.418 1.448 2.605 2.652 4.008 4.117 3.167.77 6.119 1.28 8.633 1.807-2.348.018-4.26.018-6.207.018.484 3.837.87 6.89 1.253 9.979-.002.034.062.06-.252-.041-1.13-.352-1.946-.602-2.762-.853"/><path fill="#784606" d="M76.159 151.783c1.907-1.703 3.815-3.405 6.04-5.251 2.845.115 5.374.373 7.782.951-1.242.873-2.564 1.211-3.448 2.025-1.886 1.736-5.248 2.804-3.885 6.659-4.539 1.587-4.906-2.23-6.49-4.384"/><path fill="#472B03" d="M76.063 151.535c1.679 2.403 2.046 6.22 6.936 4.804 2.478.29 4.29.54 6.184.98.264.406.484.57.774 1.123.061.73.09 1.021-.203 1.325-.955.06-1.59.108-2.676-.034-5.291-1.062-10.13-1.933-14.97-2.805-.996-1.052-1.994-2.105-3.108-3.456 2.245-.927 4.606-1.556 7.063-1.937"/><path fill="#FEFCC6" d="M108.012 165.22c-.447.505-.894 1.01-1.574 1.624-2.02.451-3.807.795-5.95 1.184-1.2-.893-2.045-1.831-3.183-3.309-.336-1.007-.377-1.476-.41-2.125.008-.18.063-.537.317-.602.455-.338.656-.611.966-.83.11.055.355.086.744.078 3.84.118 8.17-1.673 9.09 3.98"/><path fill="#784606" d="M110.435 146.854c1.346 1.052 2.692 2.104 4.266 3.58.228.422.221.748-.01 1.045-.39 2.381-.55 4.466-1.139 6.639-1.871.28-3.315.473-4.705.135.058-.883.061-1.237.04-1.669-.027-.077.005-.237-.016-.563-.667-2.132-1.312-3.937-1.912-6.142 1.189-1.274 2.332-2.15 3.476-3.025"/><path fill="#613809" d="M187.063 90.485c-2.026.707-4.097 1.134-6.723 1.167-2.113-.87-3.672-1.344-5.414-2.043-1.011-.725-1.838-1.225-2.47-1.936.91-.92 1.625-1.63 2.34-2.339 4.453.673 8.836 1.521 12.267 5.151"/><path fill="#975A06" d="M113.98 158.029c.16-2.084.32-4.169.94-6.348 2.848.232 5.235.56 7.622.888a36 36 0 0 1 2.239 1.254c-.428 1.541-1.073 2.891-2.132 4.646-1.474.458-2.532.511-3.727.3-1.68-3.457-3.415-1.239-5.113-.544-.014-.103.171-.196.171-.196"/><path fill="#DCB125" d="M53.04 117.972c-.007.203-.013.405 0 .91a36 36 0 0 1-2.642 5.045c-2.055.1-4.5 2.707-5.198-1.233.73-.691 1.252-1.195 1.775-1.7 3.063-3.062-1.28-4.096-1.765-6.56-.066-.356-.133-.295.263-.337 2.772.932 5.147 1.907 7.531 3.13.01.249.036.745.036.745"/><path fill="#BF9516" d="M174.356 85.292c-.275.751-.99 1.46-2.387 2.455-5.76.187-10.837.089-15.915-.01a100 100 0 0 1-1.599-.69c.626-.547 1.468-1.328 2.341-1.364 5.703-.234 11.412-.307 17.56-.39"/><path fill="#627762" d="M129.708 124.845c.639.84 1.277 1.681 2.062 2.81-3.249 1.949-6.645 3.608-10.42 5.318-.115-1.03.15-2.113.761-3.708 2.763-1.815 5.18-3.118 7.597-4.42"/><path fill="#593504" d="M57.92 123.464c.826-.125 1.642.125 2.83.81 2.384 2.29 4.398 4.147 6.411 6.003-.053.567-.107 1.133-.196 2.123-4.181-1.427-8.423-3.182-9.045-8.936"/><path fill="#D7BD5B" d="M40.826 63.335c2.124-2.155 2.982-4.038.693-6.454-.5-.526-.151-1.857.136-2.851 4.456 1.78 3.647 5.498 4.074 9.067-.933.756-2.182 1.307-3.787 1.907-.634-.427-.911-.902-1.116-1.669"/><path fill="#472B03" d="M81.995 67.047c-1.482 2.118-2.965 4.237-4.731 6.016-.884-.638-1.484-.937-2.135-1.551-.437-.758-.82-1.202-1.205-1.646 1.898-1.854 3.797-3.708 5.913-5.29.865 1.006 1.512 1.738 2.158 2.47"/><path fill="#3D2603" d="M90.1 147.164c-2.527-.259-5.056-.517-7.828-.964-.171-1.138-.099-2.089.404-3.275 1.087-.187 1.744-.137 2.779-.034 2.356.449 4.334.844 6.24 1.521-.327 1.009-.58 1.735-1.03 2.518-.197.056-.564.234-.564.234"/><path fill="#A36A0F" d="M110.885 137.013c.285.225.57.449 1.035.878-.975 1.47-2.13 2.734-3.613 3.727-.328-.27-.3-.74-.233-.997-.918-.705-1.904-1.153-3.205-1.631-.524-.06-.732-.09-.815-.434 2.362-.723 4.596-1.133 6.831-1.543"/><path fill="#2F1B03" d="M104.074 69.643c-.887.3-1.701.252-2.868.218-.352.014-.184.045-.163-.209-.012-.42-.046-.585-.078-1 .002-.248-.099-.734-.099-.734.315-1.774.63-3.548 1.106-5.639.831 2.127 1.503 4.572 2.102 7.364"/><path fill="#764C05" d="M110.307 146.535c-1.016 1.194-2.16 2.07-3.616 3.162-.45-1.066-.586-2.349-.816-3.929-.332-1.08-.57-1.863-.627-2.886.723-.433 1.266-.628 1.809-.822 1.04 1.385 2.081 2.77 3.25 4.475"/><path fill="#593504" d="M107.422 76.048c-1.233-1.563-2.255-3.445-3.38-5.654 3.647-.082 5.398 1.466 3.38 5.654"/><path fill="#764C05" d="M122.277 152.33c-2.122-.089-4.51-.417-7.126-.946-.229-.202-.222-.528-.242-.688 2.355.358 4.729.876 7.368 1.633"/><path fill="#744E07" d="M32.691 60.098c1.44.484 2.554 1.016 4.046 1.727a77 77 0 0 0-2.656 2.458c-1.21-1.03-4.278-1.624-1.39-4.185"/><path fill="#B89125" d="M82.246 67.066c-.897-.752-1.544-1.484-2.136-2.543.706-.783 1.359-1.24 2.134-1.98.605.103 1.086.49 1.858 1.234-.18 1.387-.651 2.42-1.122 3.45a5 5 0 0 0-.734-.161"/><path fill="#BF8512" d="M107.286 142.003c-.772.251-1.315.446-2.393.81-.766.107-.998.043-1.42-.19-.915-.596-1.641-1.024-2.13-1.585.629-.725 1.02-1.317 1.7-1.99.489-.114.687-.146.885-.18.209.031.417.062.83.391 1.219.74 2.234 1.18 3.249 1.62 0 0-.028.468-.034.703s-.459.365-.687.421"/><path fill="#784606" d="M41.067 118.285c1.181-.014 2.082.183 4.472.704-2.547 1.004-3.777 1.488-5.35 2.019-.03-.807.283-1.66.878-2.723"/><path fill="#A36A0F" d="M85.077 142.837c-.657-.05-1.314-.099-2.296-.201-.858-.284-1.39-.516-1.988-1.067-.067-.32.215-.581.518-.6.504-.035.706-.05 1.285-.055 1.394.041 2.412.073 3.419.094-.01-.01-.04-.018-.016.212.025.23.1.686-.096.811-.454.308-.664.535-.826.806"/><path fill="#7E4C08" d="M9.992 98.012s-.349-.02-.522-.024c-.685-1.078-1.195-2.151-1.316-3.6.905-.405 1.42-.434 1.934-.463 0 0 .024-.018.037-.031-.03 1.084-.074 2.18-.122 3.692-.003.414-.011.426-.011.426"/><path fill="#B68A22" d="m71.877 73.793-1.518.838a43 43 0 0 0-.662-2.37c.36-.425.855-.532 1.831-.708.482-.069.931-.252 1.527.33.99.971 1.384 1.362 1.778 1.753 0 0-.053.212-.624.016-.904-.248-1.237-.3-1.714-.297-.355.118-.513.245-.618.438"/><path fill="#627762" d="M117.437 134.544c.834-.59 1.912-1.044 3.291-1.535a13.7 13.7 0 0 1-3.291 1.535"/><path fill="#3D2603" d="M107.508 77.422s-.194-.35.287-.439c.71-.053.941-.019 1.171.016.845.27 1.69.538 2.641 1.128-.906.438-1.92.554-3.365.334-.532-.571-.633-.805-.734-1.04"/><path fill="#784606" d="M10.033 93.622c-.46.332-.974.361-1.876.404-.326-.561-.264-1.136-.109-1.922.706.264 1.318.74 1.985 1.518"/><path fill="#A36A0F" d="M77.184 138.244c.447-.066 1.062.124 1.747.569-.48.065-1.029-.124-1.747-.57"/><path fill="#6B4102" d="M185.874 94.681c.627.017 1.291.332 2.088.9-.38.497-.89.74-1.668 1.081-.306-.496-.345-1.09-.42-1.98"/><path fill="#8A8751" d="M74.867 73.65c-.428-.405-.822-.796-1.684-1.938-.469-.752-.384-1.158-.384-1.158.186-.117.372-.235.841-.52.668.276 1.052.72 1.384 1.917-.061 1.055-.069 1.357-.076 1.658 0 0-.048.054-.081.04"/><path fill="#704806" d="M72.625 70.593c.174-.039.09.367-.038.538-.128.17-.577.353-.697.307.108-.3.335-.553.735-.845"/><path fill="#744E07" d="M34.628 65.755c.57.082 1.107.217 1.852.483-.26.076-.728.02-1.532-.172-.336-.136-.354-.26-.32-.311"/><path fill="#7E4C08" d="M13.975 103.33c.217-.012.48.284.855.86-.194.004-.501-.273-.855-.86M12.218 102.048c.08-.402.331-.402.609.015.046.149-.42.12-.61-.015M12.952 102.324c.264-.123.518.09.873.557-.187.048-.516-.11-.873-.557"/><path fill="#5A350F" d="M31.926 66.724c-.049.176-.214.24-.644.279-.097-.356.167-.478.644-.28"/><path fill="#A36A0F" d="M78.824 139.326c.278-.357.443-.425.88-.248.288.464.304.685.182 1.047-.137.14-.397.436-.397.436-.26-.315-.519-.63-.665-1.235"/><path fill="#A36A0F" d="M80.58 141.374c-.4-.037-.626-.23-.957-.635-.134-.178.126-.473.454-.475.57.207.771.448.93.724 0 0-.28.261-.427.386"/><path fill="#593504" d="M108.78 76.799c-.044.165-.274.13-.85.037-.344-.058-.288-.102-.322-.092.307-.042.646-.093 1.172.055"/><path fill="#966107" d="M70.654 88.78c1.658-1.09 3.316-2.18 5.473-3.528 1.292 1.205 2.085 2.665 2.235 2.941 3.29.274 5.901.49 8.643 1.002-.911 2.136-1.953 3.976-3.345 5.83-.816.043-1.283.072-2.134.032-2.656-.547-4.927-1.027-7.479-1.67-1.482-.623-2.684-1.081-3.864-1.772.021-.233.036-.7.24-.922.212-.785.222-1.349.23-1.912"/><path fill="#F9F1BC" d="M32.118 71.017c2.505.262 5.01.525 8.143.896.628.109 1.066.038 1.066.038 3.034 3.367 6.068 6.734 9.011 10.53-1.786 1.293-3.482 2.157-5.212 2.96-.034-.06-.04-.205-.016-.591-.709-1.532-1.443-2.677-2.147-3.833.03-.012-.001.045-.045-.216-.326-.442-.608-.622-.907-.8-.018.002-.004-.03-.008-.29-.283-.423-.56-.588-.874-.772-.036-.019-.03-.1.042-.455-2.97-2.727-6.011-5.097-9.053-7.467"/><path fill="#472B03" d="M83.045 67.511c.406-1.315.877-2.347 1.265-3.879 1.022-.973 2.108-1.753 3.238-1.824.957-.06 1.965.701 3.33 1.011 1.023.406 1.668.9 2.15 1.913-1.362 2.531-2.56 4.544-3.949 6.784-.804.985-1.42 1.744-2.367 2.389-.805-1.13-1.276-2.146-1.748-3.162-.618-.983-1.236-1.966-1.92-3.232"/><path fill="#4B3105" d="m86.875 88.901-8.513-.708a27 27 0 0 0-2.067-3.225c.278-1.051.888-2.073 1.957-3.052.46.044.71.082.94.33 2.121.249 4.012.252 6.157.287.576.14.899.248 1.315.623.895.703 1.696 1.137 2.816 1.635.752.05 1.184.038 1.82.087.206.062.621.168.58.418-.306.45-.572.65-1.168.814-1.499.907-2.668 1.85-3.837 2.791"/><path fill="#614003" d="M84.666 70.827c.77.932 1.241 1.948 2.063 3.414.086 1.663-.178 2.875-.295 3.408 1.666 1.207 3.035 2.199 4.126 3.268-.655.141-1.034.205-1.817.204-2.14.238-3.875.54-6.028.856-1.529.016-2.641.018-3.754.021 0 0-.248-.038-.374-.05.648-1.756 1.423-3.5 2.3-5.79.102-.544.187-1.025.187-1.025s.044-.029.377-.16c.685-1.119 1.038-2.107 1.39-3.096a20 20 0 0 1 1.825-1.05"/><path fill="#BF8512" d="M53.67 85.465c1.96-1.778 3.21-1.316 6.449 3.069-.092.869-.115 1.073-.443 1.38-.772.754-1.238 1.407-2.07 2.065-1.092.066-1.82.125-2.575-.127-.044-.52-.06-.728.104-1.238 1.812-3.061-.094-2.937-1.906-3.028.013-.15-.025-.45.086-.87.192-.696.274-.974.355-1.251"/><path fill="#D0960B" d="M59.98 89.812c.024-.205.047-.41.112-.92.041-.307.408-.169.941-.035 1.65.526 2.767.918 4.21 1.512 1.876.316 3.426.431 4.976.546 0 0-.015.467-.183.84-.374.567-.477.807-.85 1.267-.595.33-.818.483-1.362.59-.735-.167-1.15-.288-1.872-.474-.515-.09-.721-.115-1.2-.37a200 200 0 0 0-4.771-2.956"/><path fill="#F9E05C" d="M53.862 84.89c-.273.852-.355 1.13-.797 1.907-.594.752-.827 1.005-1.06 1.226 0-.031.062-.016-.159.107-.431.38-.641.638-.852.88 0-.017.03-.006-.256.018-.75.333-1.214.642-2.001.973-.753.035-1.184.05-1.932.099-.522.1-.724.167-1.03.024-.12-.667-.138-1.125.046-1.717.513-.502.824-.87 1.635-1.262 2.179-1.153 3.858-2.282 5.536-3.412.354.194.707.389.87 1.157"/><path fill="#F2C62A" d="M52.895 83.502c-1.581 1.36-3.26 2.49-5.762 3.643-1.247-.044-1.673-.11-2.103-.546a8 8 0 0 1 .13-1.098c1.696-.863 3.392-1.727 5.364-2.78.942.056 1.608.303 2.371.78"/><path fill="#FBF39B" d="M70.422 90.693c-1.753.107-3.303-.008-5.146-.654-.243-.746-.193-.962-.142-1.177 1.586 0 3.172 0 5.14-.04.37.522.361 1.086.148 1.871"/><path fill="#F6E671" d="M64.966 88.523c.117.554.067.77-.016 1.315-1.15-.063-2.267-.455-3.722-.964.965-.308 2.268-.499 3.738-.35"/><path fill="#472B03" d="M82.607 72.083c-.118.783-.47 1.771-1.137 2.874.093-.814.498-1.74 1.137-2.874"/><path fill="#B89125" d="M75.277 73.777c-.322-.47-.314-.77-.201-1.511.704-.14 1.304.159 1.926.83-.45.53-.923.69-1.725.681M72.64 73.299c.332.053.665.105 1.462.371.015.378-.434.542-1.076.341-.194-.366-.387-.712-.387-.712"/><path fill="#5A350F" d="M41.274 71.69c.053.26-.385.332-.582.24-.16-.318-.095-.535.128-.852.222.046.311.2.454.612M40.818 69.952c-.245.001-.38-.27-.43-.805.295-.036.445.23.43.805"/><path fill="#704806" d="M72.495 73.355c.144-.056.337.29.377.484-.136.172-.313.15-.742.04-.148-.279.01-.406.365-.524"/><path fill="#472B03" d="M80.922 75.196c.152-.063.067.418.01.656-.363-.026-.398-.303-.01-.656"/><path fill="#C8840E" d="M84.143 163.815c-6.668 1.49-12.342-1.425-18.196-3.538l.182-1.248c1.4.204 2.802.409 4.901.839 4.733.79 8.767 1.355 12.869 2.239.106.53.144.743.19 1.144.007.19.054.564.054.564"/><path fill="#864E04" d="M83.831 161.788c-4.034-.565-8.068-1.13-12.453-1.925-.139-.99.072-1.75.507-2.722 5.063.659 9.902 1.53 14.99 2.803-.848.882-1.946 1.363-3.044 1.844"/><path fill="#FAC314" d="M84.547 163.844c-.404-.029-.45-.404-.07-.601a203 203 0 0 1 6.95-2.885c1.419-.217 2.457-.337 3.932-.395 1.33.101 2.224.14 3.104.456.015.462.043.645.07.829 0 0-.244-.031-.565-.117-.55.252-.78.589-1.01.926 0 0-.055.357-.41.515-.589.166-.821.174-1.062.198-.008.017-.008-.019-.412.012-.67.065-.938.1-1.48.129-.724.675-1.174 1.356-1.624 2.037-2.34-.358-4.679-.716-7.423-1.104"/><path fill="#F9DF38" d="M92.324 165.03c.096-.763.546-1.444 1.294-1.768.366.819.433 1.281.5 1.744-.48.035-.96.071-1.794.025"/><path fill="#FCF5B3" d="M95.494 162.754c.233-.008.465-.016 1.045-.002.389.491.43.96.493 1.78-.387.404-.795.457-1.55.141-.368-.566-.388-.765-.288-1.098.287-.335.347-.564.3-.82"/><path fill="#FBF485" d="M95.073 163.709c.021.199.041.398.106.894-.137.351-.318.406-.78.431-.348-.49-.415-.953-.507-1.767.244-.386.511-.42 1.089-.242.237.37.165.527.092.684"/><path fill="#864E04" d="M64.51 156.514c-.022.008.024-.01 0 0"/><path fill="#9F6602" d="M145.028 114.028c-1.146.627-2.317 1.171-4.038 1.567-5.526-2.916.468-4.861.225-7.466.725-.506 1.21-.839 2.022-1.03 3.1-.552 5.875-1.247 8.806-1.753.408.405.69.568 1.004.677-1.476 2.235-2.951 4.47-4.996 6.736-1.42.364-2.273.697-3.124 1.03 0 0 .077.155.101.239"/><path fill="#593504" d="M153.025 106.02c-.291-.106-.574-.269-1.066-.952-.762-1.261-1.284-2.055-1.666-3.144 1.366-1.15 2.593-2.007 3.82-2.863 3.23-.83 6.46-1.658 10.09-2.518 1.205.719 2.01 1.468 2.882 2.28-3.04 1.459-5.88 2.82-9.088 4.009-.634-.233-.841-.134-.99.122-.529.747-1.058 1.495-1.722 1.811a7 7 0 0 0-1.117-1.455l-1.142 2.74s-.023-.032-.001-.03"/><path fill="#784606" d="M153.287 105.915c.12-.778.5-1.692.88-2.605.328.341.656.683.924 1.264-.554.562-1.049.883-1.804 1.34"/><path fill="#6B4102" d="M169.215 95.374c.634-.459 1.478-.74 2.65-.896-.595.441-1.518.757-2.65.896"/><path fill="#93690E" d="M145.262 113.838c.516-.382 1.368-.715 2.48-.928-.541.406-1.343.692-2.48.928"/><path fill="#784606" d="M157.21 102.929c-.054-.231.153-.33.51-.192.093.08-.307.167-.51.192"/><path fill="#EBCF62" d="M31.864 70.852c3.296 2.535 6.337 4.905 8.972 7.546-5.154-5.855-11.86-4.591-18.228-4.27-.66.034-1.235 1.779-2.106 2.882-1.028 1.067-1.798 1.982-2.89 2.966-1.704 1.337-3.084 2.604-4.465 3.871-.017-1.813-.645-3.917.054-5.39 2.986-6.296 11.098-9.55 18.663-7.605"/><path fill="#F4E5A4" d="M23.485 106.066c-5.34-2.192-8.74-6.312-11.4-11.616-.054-2.61.049-4.927.643-7.088 1.119 2.259 1.746 4.362 2.402 6.823.056.597.083.836.2 1.337a32 32 0 0 0 1.678 2.502c.003-.034-.064-.036.095.235a50 50 0 0 0 2.904 2.76c0-.029-.054-.014.116.274 2.058 1.491 3.945 2.695 5.568 4.102-.912.359-1.56.515-2.206.67"/><path fill="#F3C936" d="M15.102 93.826a263 263 0 0 0-2.052-6.645c-.11-1.086-.05-1.834.053-2.958 1.425-1.643 2.805-2.91 4.625-3.764.268 2.706.095 4.999-.363 7.38-.944 2.054-1.604 4.02-2.263 5.987"/><path fill="#F9EE8E" d="M23.703 106.326c.429-.416 1.076-.572 2.313-.805 3.039.858 5.489 1.792 8.151 2.97 1.424.671 2.635 1.1 4.12 1.786 1.127 1.235 1.983 2.214 2.838 3.192-4.395-1.516-8.79-3.033-13.55-4.576-1.46-.787-2.557-1.547-3.872-2.567"/><path fill="#784606" d="M41.297 113.693c-1.027-1.202-1.883-2.18-3.02-3.666-.282-.507-.305-1.006-.29-1.02.016-.013.043-.046.415-.069 1.359-.049 2.345-.075 3.44.25 1.15 1.884 2.192 3.418 3.235 4.951 0 0 .067-.061.107-.04-1.211-.046-2.463-.114-3.887-.406M46.722 121.023c-.27.476-.792.98-1.547 1.267.276-.558.784-.898 1.547-1.267"/><path fill="#FBF485" d="M98.922 161.24c-.416-.176-.444-.36-.349-.839.122-.296.338-.378.77-.334 2.148.008 3.863-.03 5.914.006 1.432.378 2.527.683 3.78 1.24 1.019 1.026 1.878 1.8 2.737 2.575-1.034.39-2.067.78-3.431 1.251-1.25-5.572-5.581-3.78-9.421-3.9"/><path fill="#EFC820" d="M119.058 159.033a84 84 0 0 0 3.566-.236c.92.195 1.449.467 2.595 1.056-3.273 1.124-5.897 2.026-8.889 2.656-.375-.66-.382-1.05-.088-1.508.808-.391 1.316-.716 2.01-1.173.447-.302.654-.523.806-.795"/><path fill="#F9DF38" d="M115.941 161.068c.007.39.014.78.023 1.463-1.146.681-2.295 1.07-3.817 1.408-1.232-.825-2.091-1.6-2.713-2.656 1.726-.565 3.214-.85 4.976-1.146.64.02 1.006.052 1.411.296z"/><path fill="#FDFCD7" d="M149.898 90.069c.515.231 1.03.462 2.253.842 3.439.058 6.168-.034 8.889.256-.032 1.146-.056 1.91-.079 2.675-2.893 1.121-5.785 2.243-9.25 3.722-1.583.475-2.593.592-3.813.357-1.413-1.667-2.616-2.983-3.567-4.538 2.023-1.264 3.795-2.29 5.567-3.314m-2.4 4.457s-.015-.04 0 0"/><path fill="#F2CC2C" d="M148.107 98.273c1.01-.117 2.021-.234 3.41-.418.902.305 1.429.677 2.276 1.128-.907.934-2.134 1.79-3.854 2.899-2.671 1.86-4.85 3.468-7.028 5.076-.485.332-.97.665-2.043 1.166-1.941.49-3.295.813-4.72.79.234-1.203.538-2.062 1.138-3.073 2.566-1.986 4.838-3.82 7.418-5.678 1.34-.647 2.371-1.269 3.403-1.89"/><path fill="#FBF8B6" d="M161.363 93.91c-.379-.833-.355-1.597.016-2.953 4.81-.769 9.27-.946 13.73-1.123 1.56.474 3.118.948 4.827 1.738-1.196.671-2.524 1.222-3.89 1.347-4.753.433-9.52.719-14.683.992"/><path fill="#C17D06" d="M92.746 138.216c-4.229-1.927-7.636-5.86-13.408-5.646-1.773-1.389-3.03-2.41-3.966-3.465.749-.033 1.178-.034 1.716.093.38.027.651-.074 1.377-.218 4.761.285 9.068.612 13.745 1.124 3.907.152 7.443.12 10.88.43-1.107 3.005-2.114 5.668-3.522 8.383-1.484.035-2.568.018-3.656-.28-1.057-.328-2.111-.374-3.166-.421"/><path fill="#A96602" d="M75.051 129.138c1.257 1.022 2.514 2.043 3.882 3.367-3.63-.383-7.371-1.07-11.442-1.991-2.343-2.093-4.357-3.95-6.428-6.14-.057-.332-.12-.358.274-.374 2.422.316 4.448.649 6.66 1.298 2.476 1.491 4.765 2.666 7.054 3.84"/><path fill="#A06508" d="M81.31 140.968c-.462-.256-.663-.497-1.095-.845-.207-.36-.223-.58-.26-1.135 3.106-.16 6.233.013 9.743.683.393.744.402.99-.002 1.264-1.516.036-2.619.046-3.722.055 0 0 .03.007-.188-.2-1.335-.099-2.451.008-3.568.115-.201.015-.403.03-.907.063"/><path fill="#A36A0F" d="M92.753 138.424c1.048-.161 2.102-.115 2.953.351-.503.569-.774.76-1.296 1.012-.645.097-1.01.173-1.394.093-.017-.156-.057-.468-.057-.468-.207-.224-.274-.484-.206-.988"/><path fill="#D9A117" d="M90.11 140.908c-.01-.247-.019-.493-.057-1.11.705-.392 1.44-.415 2.54-.412.366.026.406.338.401.737-.004.399-.027.886-.37.893-.797.011-1.253.017-1.91-.012-.201-.034-.604-.096-.604-.096"/><path fill="#FEF9BE" d="M103.87 87.95s.416.039.69.44c.556 1.237.84 2.071 1.166 3.172.196.59.35.914.22 1.519-3.163.811-6.041 1.34-9.216 1.75-.679-1.001-1.06-1.884-1.267-2.987.335-.758.497-1.297.983-1.863 1.073-.673 1.821-1.317 2.976-1.969 1.754-.026 3.102-.044 4.449-.062"/><path fill="#FCF5B3" d="M103.734 87.675c-1.21.293-2.558.311-4.321.326-.417-.003-.438-.022-.51-.321-.888-.782-1.702-1.265-2.75-1.914a28.6 28.6 0 0 1-1.073-5.315c.119-.16.414-.428.415-.413 0 .014-.016.04-.016.04 1.936-.005 3.993-.417 5.766.116 1.314.395 2.259 2.017 3.265 3.477-1.072.848-2.042 1.312-3.33 1.929.855.637 1.637 1.219 2.554 2.075"/><path fill="#BA7C08" d="M117.638 88.913c1.26 1.205 2.248 2.244 2.926 3.642-1.085.63-1.86.9-3.04 1.207-1.763.157-3.12.277-4.513.301-.035-.096-.14-.27.028-.506a91 91 0 0 0 1.618-4.048c.902-.254 1.805-.508 2.98-.596"/><path fill="#CE9619" d="M106.23 92.8c-.154-.324-.308-.648-.371-1.558.371-1.445.651-2.303.931-3.161.485-.067.97-.133 1.839.137.396.539.409.74.436 1.118.016.175.044.529-.104.75.916.977 1.98 1.733 3.186 2.698.334.477.528.743.724 1.008 0 0 .105.175.104.434s-.084.584-.437.628c-1.062.134-1.77.224-2.793.215-1.381-.822-2.448-1.546-3.514-2.27"/><path fill="#EAC11E" d="M113.04 93.557c-.365-.03-.56-.296-.889-.791-.137-.228-.127-.27-.084-.684.03-.966.014-1.518.207-2.253.414-.487.62-.792.825-1.096.357.151.714.303 1.315.615-.24 1.432-.723 2.703-1.375 4.21"/><path fill="#DAA010" d="M112.827 88.491c.066.546-.14.85-.845 1.203-1.31-.145-2.121-.34-2.932-.534l-.055-.908c1.175-.203 2.367-.102 3.832.24"/><path fill="#F3D14F" d="M106.439 88.044c.071.895-.209 1.753-.622 2.931-.417-.514-.7-1.348-1.064-2.508.392-.37.864-.415 1.686-.423"/><path fill="#E5B325" d="M149.483 89.995c-1.357 1.099-3.129 2.124-5.378 3.312-4.027 1.504-7.576 2.845-11.365 4.146-.24-.04-.684-.235-.704-.56-3.043-1.532-6.066-2.74-9.09-3.947.389-.268.758-.736 1.167-.774 8.316-.78 16.636-1.51 25.37-2.177"/><path fill="#F2C62A" d="M122.696 93.008c3.274 1.146 6.297 2.353 9.093 4.102-2.697 2.014-5.169 3.489-7.949 4.813-1.803-2.033-3.298-3.915-4.744-6.08.01-.47-.026-.658-.087-.856-.023-.01-.035.039.291.085.757-.035 1.188-.115 1.8-.105.407-.516.632-1.122.857-1.729.163-.056.326-.112.74-.23"/><path fill="#FBF485" d="M174.926 89.61c-4.277.401-8.738.578-13.538.965-3.069.302-5.798.394-8.982.459.709-.995 1.872-1.963 3.342-3.113 5.384-.085 10.461.013 16.026.037 1.314.426 2.14.926 3.152 1.651"/><path fill="#E6BC2F" d="M121.685 93.151c.047.694-.178 1.3-.722 1.6-.876-.111-1.432.082-1.99.275 0 0 .013-.049-.242-.115-.443-.108-.63-.15-.82-.441-.002-.249.019-.746.019-.746.774-.27 1.549-.54 2.636-.836.491.04.67.108 1.12.263"/><path fill="#FAF1C4" d="M98.994 52.767a35 35 0 0 1-.05 3.472c-.11 2.046-.117 4.112-.482 6.113-.045.245-2.82.485-2.973.134-.793-1.811-1.28-3.794-1.6-5.76-.207-1.276.055-2.627.019-4.355.332-2.583.751-4.755 1.42-8.215 1.518 3.509 2.541 5.875 3.666 8.61"/><path fill="#744E07" d="M89.269 71.288c1.198-2.012 2.397-4.025 3.907-6.28.44.276.568.795.456 1.692-.423.55-.527.761-.664 1.363-1.309 1.31-2.504 2.267-3.7 3.225"/><path fill="#D7BD5B" d="M93.08 67.712c.025-.25.13-.463.456-.736 2.27.274 4.397.65 6.927.984.403-.042.504.444.241.685-.428.29-.595.339-1.183.371-2.108-.131-3.795-.246-5.603-.553-.324-.423-.563-.61-.837-.751"/><path fill="#7E4C08" d="M10.005 97.996c.005-.003.287.177.287.177s-.21-.008-.255-.085c-.045-.076-.037-.088-.032-.092"/><path fill="#8A5906" d="M99.968 138.865c1.008-2.663 2.015-5.326 3.441-8.467 3.662-2.196 6.904-3.913 10.28-5.69.132-.06.274-.317.584-.425.813-.465 1.318-.82 1.777-1.224-.046-.048.024.064.333-.065.782-1.074 1.254-2.018 2.035-2.975 1.053-.31 1.797-.608 2.707-.638.99.337 1.815.405 2.967.577.87.782 1.414 1.46 1.707 2.35-1.645.824-3.04 1.435-4.435 2.046-6.291 1.106-9.183 4.399-10.445 12.257-2.269.812-4.503 1.222-6.865 1.945-.324.346-.522.378-1.357.476a23 23 0 0 1-2.729-.167"/><path fill="#8A8751" d="M121.22 124.638c1.54-.895 2.934-1.506 5.013-2.341 2.154-.233 3.623-.24 5.093-.248-.438.741-.877 1.483-1.467 2.51-2.568 1.588-4.985 2.89-7.713 4.374-4.808-.446-1.603-2.471-.927-4.295"/><path fill="#FCEE9D" d="M95.735 79.742c-.256.337-.24.31-.337-.072-3.191-3.482-2.356-6.509.455-9.54 1.691-.084 3-.134 4.53-.116.217.067.639-.108.639-.108s-.168-.03-.215.041c.001.227.04.386.1.536 2.94 7.24 2.737 7.606-5.172 9.259"/><path fill="#593504" d="M107.363 77.635c.246.02.347.255.557.855-.161.03-.431-.306-.557-.855"/><path fill="#93690E" d="M131.652 121.997c-1.796.06-3.265.067-5.169.087-.977-.666-1.52-1.344-2.155-2.367 2.198-1.972 4.486-3.6 7.067-5.346.779-.495 1.266-.871 1.718-1.259-.036-.012-.05.063.257-.022.432-.436.558-.788.762-1.397.404-.68.728-1.105 1.284-1.601.52-.253.71-.507.803-.833 1.354-.322 2.708-.644 4.409-.961.83 2.436-5.164 4.38.039 7.34-2.745 2.23-5.717 4.268-9.015 6.359"/><path fill="#9B6304" d="M67.812 124.982c-2.027-.333-4.053-.666-6.473-1.016-.778-3.072-1.164-6.126-1.648-9.963 1.948 0 3.859 0 6.502-.016 1.77.534 2.809 1.085 3.726 1.977-.382 1.243-.643 2.144-1.202 3.2-1.834 1.768-2.464 3.189.651 4.053-.413.73-.985 1.247-1.556 1.765"/><path fill="#673C04" d="M70.04 115.623c-1.038-.55-2.077-1.102-3.41-1.655-3.246-.51-6.198-1.02-9.366-1.98-.215-.454-.26-.834.082-.921 1.132-1.053 1.922-2.018 3.021-2.933 1.391-.01 2.472-.072 3.927-.136.875-.029 1.375-.054 2.143-.027.708.365 1.146.679 1.647 1.298.687 1.123 1.311 1.94 2.043 3.062 1.352 1.102 2.597 1.899 3.802 2.882-.04.187-.087.565-.467.572-1.395-.05-2.408-.105-3.422-.162"/><path fill="#845609" d="M57.004 111.154s.045.38.046.571c-1.188-1.012-2.375-2.216-3.94-3.96A135 135 0 0 1 49.4 99.68c-.213-2.16-.318-3.9-.099-5.622 1.097.72 1.87 1.422 2.76 2.362.376.705.636 1.171.963 1.844.204.475.407.673.736.837.057.035.101.16.12.473.108.928.199 1.544.023 2.4-1.25 3.4.092 5.208 3.11 6.435 0 1.175-.005 1.96-.01 2.746"/><path fill="#B68A22" d="M49.51 100.1c1.074 2.375 2.148 4.751 3.37 7.422.366 3.615.584 6.935.481 10.353-.321.097-.348-.4-.333-1.034-1.162-6.003-2.34-11.372-3.518-16.742"/><path fill="#A26803" d="M89.981 147.483c.12-.319.487-.497.866-.388.378.11.74.44.63.788-.716 3.357-1.32 6.365-2.062 9.424-.135.051-.315-.177-.315-.177-1.811-.25-3.623-.5-5.786-.923-2.029-3.895 1.333-4.963 3.219-6.7.884-.813 2.206-1.151 3.448-2.024"/><path fill="#DAA010" d="M91.046 160.455c-2.062.863-4.125 1.727-6.576 2.599-.427-.204-.465-.416-.571-.947 1.03-.8 2.128-1.281 3.428-1.973.837-.259 1.472-.306 2.575-.232.716.23.941.373 1.144.553"/><path fill="#864E04" d="M91.427 160.358c-.584-.083-.81-.226-1.205-.468-.176-.427-.204-.718.182-1.5 1.6-.47 2.785-.449 4.071-.371.101.056.276.22.293.498.063.647.108 1.015.153 1.384-1.037.12-2.075.24-3.494.457"/><path fill="#F9E05C" d="M94.374 157.962a99 99 0 0 0-4.002-.01c-.705-.062-.925-.227-1.189-.633-.083-.189.097.039.465.003.685-.047.99-.11 1.692-.227 1.215.015 2.024.032 2.881.254.048.205.153.613.153.613"/><path fill="#F9DF38" d="M97.212 161.992c-.024-.272.206-.61.646-.916.01.305-.19.578-.646.916"/><path fill="#CD8F06" d="M105.969 146.065c.136 1.283.272 2.566.677 4.03.913 1.989 1.558 3.794 1.838 5.833-1.415.24-2.465.248-3.852.188-.79.004-1.242.075-1.715.078-.022-.067.062-.18.032-.496-.048-.525-.067-.736.021-1.25-.765-3.1-1.637-5.894-2.55-8.899-.042-.21-.105-.633.255-.604a210 210 0 0 1 5.294 1.12"/><path fill="#FAC314" d="M114.136 160.15c-1.488.284-2.976.568-4.86.882-1.492-.276-2.587-.581-3.999-1.181-.317-.295-.308-.74.02-.75 1.384-.112 2.44-.215 3.496-.319 1.444-.191 2.888-.383 4.76-.664.427-.09.242.004.302.41.134.81.207 1.216.281 1.622"/><path fill="#AD7307" d="M108.847 158.253c-1.11.633-2.166.736-3.553.594-.32-.416-.31-.585-.144-.835.156-.08.423-.307.773-.333 1.23-.357 2.11-.687 2.99-1.018-.005.355-.008.71-.066 1.592"/><path fill="#FBF7DD" d="M108.886 156.584c-.853.408-1.733.738-3.097.918-.484-.15-.774-.486-.785-.694l-.035-.625c1.05-.007 2.1-.014 3.537.071.386.093.354.253.38.33"/><path fill="#C17D06" d="M114.41 160.137c-.348-.393-.421-.798-.541-1.507 1.638-1.1 3.373-3.318 5.053.139-.016.536-.223.757-1.055 1.057-1.076.218-1.58.307-2.085.395a21 21 0 0 0-1.372-.084"/><path fill="#3F2705" d="M49.401 99.68c1.287 5.789 2.465 11.158 3.619 16.912-2.4-.588-4.775-1.563-7.547-2.495-1.439-1.491-2.48-3.025-3.392-5.208.328-2.666.525-4.683 1.08-6.792 3.548-1.514 2.928-3.834 1.816-6.45.002-.178.092-.524.426-.594 1.417-.392 2.5-.715 3.586-1.034.002.003-.01.02-.01.02.104 1.74.209 3.48.422 5.64"/><path fill="#BA7C08" d="M90.915 141.038c.456-.005.912-.01 1.724-.029.357-.013.382-.03.377.355.045 1.15.096 1.914.037 2.664-.11-.014-.33-.052-.57-.018-.239.035-.715.12-.715.12-1.979-.395-3.957-.79-6.313-1.239-.216-.325-.006-.552.815-.838 1.924-.407 3.284-.71 4.645-1.015"/><path fill="#A26803" d="M91.695 144.412c.073-.282.55-.367.898-.077-.102 1.26-.554 2.23-1.006 3.2l-.544-.496c.072-.892.325-1.618.652-2.627"/><path fill="#7E4C08" d="M108.074 140.62a6.6 6.6 0 0 1-3-1.33c1.096.178 2.082.626 3 1.33"/><path fill="#6B4102" d="M101.043 69.652c-.021.254-.443.43-.727.136s-.374-.755-.374-.755a3.4 3.4 0 0 1 .76-.14c.295.174.329.34.341.76"/><path fill="#905F04" d="M105.875 145.768c-1.55-.067-3.195-.43-5.265-1.112-.29-.687-.153-1.057.296-1.405 1.128-.139 1.942-.299 2.757-.46.232.065.464.129 1.05.262.593.852.83 1.635 1.162 2.715"/><path fill="#F9D741" d="M103.474 142.624c-.626.328-1.44.488-3.028.608-1.079-.031-1.384-.022-1.99-.038-.697-.08-1.094-.135-1.498-.44-.078-.58-.078-.91.375-1.316 1.397-.272 2.412-.47 3.513-.566.085.101.26.3.26.3.726.427 1.452.855 2.368 1.452"/><path fill="#F9E05C" d="M99.568 138.917c1.098.025 1.795.102 2.839.196-.044.608-.435 1.2-1.064 1.925-.238.134-.412-.065-.763-.396-2.014-.383-3.677-.435-5.48-.581-.14-.094-.41-.295-.41-.295.242-.232.513-.422 1.02-.71 1.29-.121 2.374-.104 3.858-.139"/><path fill="#784606" d="M90.714 141.004c-1.16.338-2.52.642-4.247.924-.367-.022-.443-.478-.468-.708 1.078-.24 2.18-.249 3.697-.285.414-.027.817.035 1.018.07M82.596 140.914c.739-.116 1.855-.223 3.2-.112-.788.185-1.806.153-3.2.112"/><path fill="#EAC11E" d="M95.29 92.065c.38.882.761 1.765 1.428 3.006.286.36.252.838 0 .913-.417.137-.581.199-.981.21-.236-.051-.717-.022-1.172-.083-3.523-.116-6.591-.17-9.719-.463-.213-.59-.48-.74-.868-.667-.009.02.032.031.032.031 1.042-1.84 2.084-3.681 2.995-5.817 1.04-1.236 2.208-2.178 3.632-2.727-.266 2.52-.786 4.648-1.495 7.549z"/><path fill="#EFC82B" d="M74.328 93.551c2.27.48 4.542.959 6.988 1.716-.38.475-.938.67-1.845.826-2.086-.682-3.82-1.325-5.45-2.11.105-.142.307-.432.307-.432"/><path fill="#EFC82B" d="M69.557 92.846c.002-.284.105-.524.458-.859 1.348.319 2.55.777 4.032 1.4.281.164.079.454-.392.567-1.185-.068-1.899-.25-2.777-.563-.55-.27-.936-.407-1.321-.545"/><path fill="#DCB125" d="M79.822 96.134c.556-.196 1.113-.392 1.88-.798.675-.239 1.142-.268 1.958-.31.35-.014.31-.025.343.187.034.211.12.67-.083.816-.515.312-.722.564-1.207.951-1.152-.009-1.92-.067-2.717-.311-.03-.187-.174-.535-.174-.535"/><path fill="#673C04" d="M20.76 76.858c.613-.951 1.187-2.696 1.848-2.73 6.369-.321 13.074-1.585 18.155 4.626.335.086.33.166.359.446.315.444.6.608.885.771 0 0-.014.032.025.299.335.441.633.617.93.792 0 0 .031-.057-.013.318.682 1.535 1.41 2.696 2.136 3.856 0 0 .007.145.04.205-.01.303-.055.545-.005 1.571.23 1.033.364 1.281.499 1.53.018.457.036.915.33 1.77.597.485.921.573 1.425.759.375.288.582.466.754.94-.057.513-.07.719-.48.939-1.186.106-1.976.198-2.98-.011-.374-1.024-.535-1.746-.863-2.736-1.37-1.677-2.985-2.904-3.699-4.528-2.878-6.55-7.054-9.632-13.63-9.441-1.91.055-3.811.407-5.717.624"/><path fill="#EBCF62" d="M45.11 84.85c-.752-.774-1.479-1.935-2.192-3.459.749.782 1.483 1.927 2.192 3.459M42.003 79.712c-.281.096-.566-.068-.845-.493.284-.096.562.069.845.493M42.918 80.8c-.253.087-.55-.089-.869-.533.261-.088.543.092.869.534"/><path fill="#C6890C" d="M95.472 70.164c-2.43 2.997-3.265 6.024-.074 9.492.096.367-.199.635-.732.845-1.631.253-2.73.295-3.829.338l-4.403-3.19c.117-.533.381-1.745.628-3.294.598-1.095 1.213-1.854 2.017-2.84 1.385-1.185 2.58-2.143 3.889-3.452.387-.21.626-.023 1.105.723.65.802 1.024 1.09 1.399 1.378"/><path fill="#F8D62C" d="M90.56 80.917c1.376-.12 2.475-.163 3.987-.256.734 1.612 1.054 3.275 1.515 5.44.158.962.174 1.422.104 2.214-.072.785-.059 1.24-.045 1.694a14 14 0 0 1-.658 1.835c-1.925.777-3.677 1.333-6.32 2.173.708-2.9 1.228-5.029 1.824-7.515.341-.557.607-.756 1.101-1.389-.152-1.005-.533-1.577-1.487-2.295-.962-.206-1.35-.265-1.689-.332.051-.006.04.083.116-.26.097-.574.118-.807.14-1.04.378-.064.757-.128 1.412-.27"/><path fill="#8A5906" d="M79.192 82.245c.882-.25 1.994-.252 3.866-.237 1.185.176 1.611.334 2.037.493-1.89-.003-3.782-.006-5.903-.256"/><path fill="#DAA010" d="M85.349 82.533c-.68-.19-1.106-.349-1.874-.538 1.393-.334 3.128-.636 5.268-.874.383.298.362.53.194 1.215-.145.451-.404.43-.898.396-.82.03-1.144.093-1.469.156a13 13 0 0 0-1.221-.355"/><path fill="#8A5906" d="M86.664 83.156c.23-.331.555-.394 1.345-.44.464.017.466-.12.6.23.272.826.412 1.303.551 1.781-.8-.434-1.601-.868-2.496-1.57"/><path fill="#C17D06" d="M89.48 84.79c-.46-.54-.599-1.018-.796-1.932-.058-.436.157-.365.157-.365.39.06.778.12 1.732.634.55.866.536 1.277.523 1.689a15 15 0 0 1-1.616-.025"/><path fill="#EAC11E" d="M91.3 84.878c-.19-.474-.177-.885-.155-1.606.39.264.771.836.964 1.591-.188.183-.603.077-.808.015"/><path fill="#F4CE23" d="M66.26 93.202c.414.122.829.243 1.676.538.798.214 1.163.255 1.53.562.069.433.134.598.06.91-.282.52-.426.894-.907 1.359-.773.257-1.207.425-1.599.501.044-.091.02-.291-.112-.377-.47-.162-.743-.056-1.35.242-1.458-.111-2.517-.232-3.823-.516-1.01-.33-1.774-.499-2.753-.917a40 40 0 0 0-3.105-2.043c-.085-.028-.384-.165-.49-.45-.18-.471-.254-.66-.328-.847.727-.06 1.455-.12 2.74.057 1.452.733 2.347 1.23 3.552 1.889 1.842-.194 3.376-.55 4.91-.908"/><path fill="#DAA010" d="M55.03 91.852c.103.5.177.688-.038 1.153-1.209 1.244-2.128 2.21-3.047 3.175-.773-.701-1.546-1.403-2.643-2.123-.323-.018-.31-.035-.334-.274-.022-.24-.076-.711.226-.754.84-.3 1.38-.558 2.1-.912.44-.225.625-.42 1.103-.754a383 383 0 0 1 2.558-.447c.016.208.032.416.076.936"/><path fill="#E5AF10" d="M61.042 93.947c-.896-.496-1.79-.993-2.878-1.731.274-.895.74-1.548 1.512-2.302 1.804.806 3.304 1.715 4.718 2.856-1.174.548-2.263.862-3.352 1.177"/><path fill="#FCF5B3" d="M55.135 90.614c-.911.428-1.642.553-2.731.37-.336-.812-.314-1.314-.227-2.11.007-.484-.052-.675-.11-.867 0 0-.061-.015.265.028.512-.071.698-.185.883-.298 1.826-.06 3.732-.184 1.92 2.877"/><path fill="#E6BB34" d="M53.229 87.586c-.2.264-.385.378-.898.48-.093-.264.14-.517.623-.85.25-.08.288.22.275.37"/><path fill="#DAA010" d="M61.35 94.11c.78-.478 1.87-.792 3.317-1.11.564.023.77.049 1.285.138-1.225.421-2.759.778-4.601.972"/><path fill="#E5AF10" d="M69.464 94.035c-.365-.04-.73-.081-1.207-.25.11-.28.334-.433.929-.763.756-.038 1.141.1 1.288.47-.495.337-.753.44-1.01.543"/><path fill="#F6E671" d="M52.112 89.168c-.022.502-.044 1.004-.073 1.885-.12.643-.305.84-1.114 1.017a21 21 0 0 1-2.753-.367c-.216-.166-.423-.344-.806-.86-.188-.326-.243-.778-.243-.778.43-.014.86-.029 1.9-.1 1.072-.358 1.537-.66 2.002-.96 0 0-.032-.012.248.042.466.077.653.099.84.121"/><path fill="#A36A0F" d="M45.821 88.407c-.337-.114-.471-.362-.696-1.025.335-.347.76-.28 1.508-.214.012.369-.299.737-.812 1.24"/><path fill="#E6BB34" d="M50.738 89.028c-.178.278-.643.58-1.393.916.179-.274.643-.583 1.393-.916M52.177 88.875c-.251.27-.438.249-.903.189-.07-.296.141-.553.572-.934.28.069.338.26.331.745"/><path fill="#A36A0F" d="M46.805 90.1c.318-.035.373.417.381.645-.316.14-.64.052-1.136-.223.03-.255.233-.321.755-.422"/><path fill="#BA7C08" d="M95.36 159.963c-.484-.43-.529-.8-.269-1.51.52-.303.734-.265 1.18-.052 1.036.657 1.838 1.14 2.64 1.622 0 0-.216.082-.326.1a54 54 0 0 1-3.226-.16"/><path fill="#F9DF38" d="M95.194 163.575c-.048-.023.024-.18.19-.58.094-.244.094-.208.102-.225.055.241-.005.47-.292.805"/><path fill="#784606" d="M143.237 107.1c1.853-1.75 4.031-3.358 6.563-4.923.875.836 1.397 1.63 2.003 2.702-2.69.973-5.465 1.668-8.566 2.22"/><path fill="#080500" d="M20.502 77.01c2.163-.369 4.064-.721 5.974-.776 6.576-.19 10.752 2.89 13.63 9.44.714 1.625 2.33 2.852 3.366 4.72-4.036 3.6-.167 4.148 1.503 5.433 1.114 2.436 1.734 4.756-2.007 6.256-.55.077-.937.107-1.148-.15-1.42-.183-2.63-.108-4.097.191-1.64 3.02-3.654 4.257-7.008 2.647-2.768-1.648-5.266-3.1-7.958-4.853-1.83-4.257-3.468-8.212-5.106-12.168.172-2.292.345-4.585.4-7.36.653-1.398 1.423-2.313 2.45-3.38"/><path fill="#ECDC7C" d="M17.365 87.838c1.924 3.868 3.562 7.823 5.163 12.306-.883.638-1.729.75-2.575.86 0 0 .055-.014.041-.324-1.026-1.104-2.038-1.898-3.05-2.692 0 0 .067.002.063-.283-.592-1.006-1.179-1.726-1.766-2.446-.028-.238-.055-.477-.11-1.074.63-2.325 1.29-4.292 2.234-6.347"/><path fill="#DAA622" d="M20.123 101.293c.676-.4 1.522-.51 2.598-.848 2.728 1.226 5.226 2.678 8.127 4.62a120 120 0 0 0 3.107 3.182c-2.45-.934-4.9-1.868-7.675-2.93-2.212-1.33-4.1-2.533-6.157-4.024M17.103 98.259c.853.523 1.865 1.317 2.89 2.45-.901-.501-1.816-1.34-2.89-2.45M15.33 95.522c.498.457 1.085 1.177 1.674 2.216-.528-.438-1.056-1.196-1.674-2.216"/><path fill="#A06508" d="M34.167 108.49c-1.114-1.14-2.015-2.038-3.05-3.229 2.952 1.12 4.966-.116 6.895-2.995 1.042.753 1.537 1.588 2.271 2.826l1.748-2.902s.386-.03.579-.015c-.004 2.03-.201 4.048-.638 6.363-1.225.325-2.211.351-3.617.3-.42-.078-.715-.078-.715-.078l.332.261s.023.5.032.749c-1.202-.179-2.413-.608-3.837-1.28"/><path fill="#DCB125" d="M99.344 160.067c-1.235-.527-2.037-1.009-2.632-1.729 2.898-.24 5.59-.243 8.282-.245-.01.17-.02.338-.028.762.003.255-.006.7-.026.923-1.734.26-3.449.297-5.596.29"/><path fill="#FAC314" d="M115.821 160.433c.466-.3.97-.39 1.86-.475-.123.327-.63.652-1.44 1.043-.3.067-.38-.356-.42-.568"/><path fill="#FAF4D2" d="M132.98 97.494c3.549-1.342 7.098-2.683 10.873-3.948 1.43 1.392 2.632 2.708 4.045 4.375-.823.973-1.854 1.595-3.446 2.039-1.015-1.034-1.469-1.89-2.12-3.118-2.801 1.736-5.566 3.45-8.383 4.834a260 260 0 0 0-.97-4.182M147.49 94.506c-.007-.02.008.02 0 0"/><path fill="#FDFCD7" d="m134 102.006 8.332-5.164c.651 1.228 1.105 2.084 1.811 3.143-2.02 2.036-4.29 3.87-7.26 5.852-2.42-.515-4.144-1.179-5.557-1.892 1.098-.68 1.887-1.31 2.675-1.94"/><path fill="#FBF8B6" d="M131.016 103.995c1.723.663 3.447 1.327 5.573 1.995.097.862-.207 1.72-.44 2.924-.023.671-.213.925-.877.815-2.338-.685-4.313-1.02-6.253-1.497a8.2 8.2 0 0 1-2.805-1.305c1.799-1.077 3.3-2.005 4.802-2.932"/><path fill="#6B4102" d="M67.997 125.298c.386-.834.958-1.351 1.312-2.407-.233-.977-.248-1.417.008-1.91.738-.327 1.205-.6 2.092-.903 2.807-.49 6.493.81 5.938-3.954.221-.016.653-.128.954-.064.71.088 1.118.113 1.564.512-.017 4.555 3.18 4.801 6.36 5.42.432.054.605.074.777.458-.001 1.091-.002 1.818-.42 2.548-4.098-.6-7.777-1.203-11.457-1.805l-.338 1.414c2.073.477 4.162.897 6.217 1.444 3.705.986 7.389 2.049 11.025 3.278-.056.199-.19.59-.19.59-4.306-.327-8.613-.654-13.632-.939-.885.058-1.056.074-1.228.09-.429.001-.858.002-1.607.035a62 62 0 0 1-7.375-3.807"/><path fill="#F8D62C" d="M92.21 130.104c-.37-.185-.237-.576.195-.804a57 57 0 0 1 5.947-1.347 173 173 0 0 0 11.755-4.131c1.093-.777 1.989-1.31 2.937-1.373.206 1.087.359 1.703.512 2.318-3.243 1.718-6.485 3.435-10.047 5.288-3.856.168-7.392.201-11.3.049"/><path fill="#A96602" d="M77.088 129.198c.063-.144.234-.16.664-.176-.013.102-.284.203-.664.176"/><path fill="#F9D741" d="M92.981 141.003c-.014.006.009-.481.03-.725.388-.318.754-.394 1.4-.49a.56.56 0 0 1 .591.496c.042.317-.087.788-.404.788-.737-.03-1.157-.061-1.577-.092 0 0-.025.016-.04.023"/><path fill="#F3D14F" d="M96.97 95.909s.034-.478.045-.718c2.89-.77 5.768-1.299 8.93-2.11 1.352.442 2.419 1.166 3.773 2.167.287.277.272.64-.13.657-1.472.085-2.542.153-4.058.178-3.15-.086-5.855-.13-8.56-.174"/><path fill="#FCF5B3" d="M96.446 89.98c-.339-.425-.352-.88.06-1.66 1.107-.33 1.788-.336 2.47-.341l.03.03c-.739.655-1.487 1.3-2.56 1.972"/><path fill="#FEF9BE" d="M98.903 87.68c-.609.304-1.29.31-2.31.31-.357-.467-.373-.927-.298-1.722.906.147 1.72.63 2.608 1.412"/><path fill="#F3D14F" d="M117.524 93.762c.406-.038.385.46.168.819-.218.36-.66.577-.958.638-1.043.392-1.787.723-2.588.97a5 5 0 0 1-.287-.49c-.404-.455-.686-.672-.968-.89 0 0 .082-.324.12-.487 1.393-.283 2.75-.403 4.513-.56"/><path fill="#F9EE8E" d="M112.538 94.854c.635.173.917.39 1.054.93-.616 1.205-1.088 2.084-1.45 3.307 1.166 2.677.533 3.94-2.145 3.905.003.004.01.01-.003-.359-.759-1.206-1.504-2.041-2.146-3.052.105-.175.326-.519.626-.558.699-.651 1.098-1.263 1.507-2.19.01-.527.01-.738.009-.95 0 0 .015-.362.042-.541.736-.268 1.444-.358 2.506-.492"/><path fill="#E6BB34" d="m112.024 92.496-.014.06c-1.068-.737-2.133-1.493-2.794-2.27 1.204.724 2.006 1.467 2.808 2.21"/><path fill="#A06508" d="M112.067 92.082c-.845-.329-1.647-1.072-2.704-2.016-.254-.201-.282-.555-.298-.73.796.019 1.607.213 2.71.541.306.687.321 1.239.292 2.205"/><path fill="#FBF7DD" d="M131.326 103.945c-1.812.977-3.313 1.905-5.403 3.132-2.379 1.222-4.17 2.144-6.34 3.015-5.459 1.598-10.538 3.246-15.99 5.058-3.126.453-5.877.743-8.995.986-1.74-.439-3.112-.832-4.31-1.56 1.35-.756 2.496-1.318 3.706-1.58 4.733-1.028 9.486-1.961 14.603-2.929 2.034-1.01 3.697-2.02 5.778-2.98 4.417-.01 8.336-.22 9.774-5.014 2.471-1.474 4.943-2.949 7.66-4.64.247-.215.692-.02.931.02.545 1.325.85 2.609 1.209 4.223-.736.96-1.525 1.59-2.623 2.269"/><path fill="#E6BC2F" d="M123.84 101.923c-1.129 4.944-5.048 5.154-9.374 4.818 2.249-4.57 1.69-6.587-2.433-7.994.471-.88.943-1.758 1.68-2.724.268-.086.377.083.627.343 1.048.18 1.846.102 2.987-.03.802-.104 1.261-.157 1.72-.21 1.495 1.882 2.99 3.764 4.793 5.797"/><path fill="#AD7307" d="M119.3 95.072c.23-.24.787-.432 1.481-.41-.293.295-.724.375-1.48.41M119.096 95.843c-.508.336-.967.389-1.753.184-.322-.461-.316-.665-.31-.87 0 0 .441-.216.66-.328.408-.068.595-.026 1.061.092.316.264.353.452.342.922"/><path fill="#A06508" d="M95.853 70.13c-.756-.254-1.13-.542-1.66-1.152 1.533-.208 3.22-.093 5.328.038.421.017.511.478.577.704-1.244.276-2.554.326-4.245.41"/><path fill="#F2C62A" d="M120.959 119.113a25 25 0 0 1-2.88.99c-1.1 1.07-1.552 2.045-2.005 3.02 0 0-.07-.112-.29-.203a64 64 0 0 1-1.79-.926c-.001-.002-.01-.01-.002-.367.34-1.713.673-3.069 1.358-4.496 1.724-.504 3.094-.936 4.765-1.299.503.102.706.133 1.08.382.723.703 1.273 1.19 1.568 1.833-.771.46-1.288.763-1.804 1.066"/><path fill="#EBCF62" d="M121.125 119.381c.35-.571.867-.874 1.94-1.463 3.023-1.825 5.489-3.364 8.01-4.89.058.013.161.067.118.415-.059.58-.074.814-.09 1.047-2.289 1.628-4.577 3.255-7.102 5.123-1.06.173-1.886.105-2.876-.232"/><path fill="#F8D62C" d="M116.383 122.994c.144-.846.596-1.822 1.388-2.88-.134.862-.606 1.806-1.388 2.88M113.995 121.995l1.835.973c-.24.494-.744.85-1.552.913-.297-.823-.29-1.355-.283-1.886"/><path fill="#F2C62A" d="m113.994 121.994-.025 1.996c-.006.401-.148.658-.28.717-.286-.555-.44-1.171-.635-2.26-.042-.474-.023-.468.215-.47s.715.007.715.007z"/><path fill="#FEED67" d="M119.815 115.763c-1.37.432-2.741.864-4.503 1.028-.68-1.115-.97-1.961-1.007-3.012 2.053-1.348 3.855-2.492 5.658-3.636l5.663-2.917c1.323.243 2.329.745 3.393 1.006 1.94.477 3.915.812 6.02 1.569-.18.787-.503 1.211-1.12 2.054-.48.72-.667 1.02-.855 1.32 0 0 .013-.075-.27-.091a43 43 0 0 0-1.558.01s-.103-.053-.357-.367c-2.076-.087-3.898.139-6.084.38-1.903.894-3.442 1.775-4.98 2.656"/><path fill="#F3E17A" d="M131.193 113.443c.467-.357.892-.366 1.636-.347-.168.404-.655.78-1.434 1.275-.276-.114-.261-.347-.202-.928M133.37 113.09c-.118-.216.07-.516.47-.978.088.19-.038.542-.47.978"/><path fill="#D0960B" d="M77.125 116.141c.777 4.748-2.91 3.447-5.89 3.692-1.146-.427-1.698-.638-2.244-.843l.024.02c.261-.902.522-1.803.904-3.046 1.135-.284 2.148-.228 3.938-.094 1.579.102 2.383.128 3.203.185a1 1 0 0 0 .065.086M69.046 121.034c.015.44.03.88.104 1.645-2.897-.326-2.267-1.747-.433-3.515.298-.154.281-.167.271.169.013.79.035 1.245.058 1.7"/><path fill="#F3E17A" d="M68.021 108.963c-.438-.313-.876-.627-1.785-1.245-1.523-1.044-2.577-1.783-3.21-2.58.983-.105 1.547-.15 2.46-.123 6.237 2.085 12.099 4.174 18.022 6.074 2.219.712 3.126 1.35.418 2.998-.515.027-.718.054-1.248-.035-1.446-.379-2.565-.642-4.01-1.046-2.111-.71-3.897-1.278-5.98-2.013a256 256 0 0 0-4.667-2.03"/><path fill="#D0960B" d="M78 115.996s-.432.112-.653.128c-.222.017-.27-.037-.522-.31-1.12-.445-1.988-.616-2.856-.787-1.245-.797-2.49-1.594-3.47-2.736 1.014-.28 1.761-.214 2.752.093 2.045.75 3.847 1.257 5.716 1.939.067.175.215.52-.013.68-.47.437-.712.715-.954.993"/><path fill="#7E4C08" d="M73.007 112.142c-.747-.065-1.494-.131-2.615-.156-.997-.777-1.621-1.594-2.308-2.717 1.393.315 2.85.936 4.604 1.97.298.412.32.903.32.903"/><path fill="#A66C04" d="M57.346 111.067c-.337-.699-.332-1.484-.329-2.665-.002-.396.008-.384.382-.391a76 76 0 0 1 2.629.016c.004.02.03.056.03.056-.79.966-1.58 1.931-2.712 2.984"/><path fill="#7E4C08" d="M62.606 105.197c1.053.738 2.107 1.477 3.361 2.469-.298.278-.798.303-1.95.23-1.483-.637-2.313-1.175-3.092-2.054.08-.569.11-.796.38-.995.243.028.73.05.848.172s.453.178.453.178"/><path fill="#AD7307" d="M60.874 106.184c.83.537 1.66 1.075 2.767 1.715-.802.163-1.883.225-3.274.235-.31-.05-.335-.086-.42-.326.252-.701.59-1.163.927-1.624"/><path fill="#9B6304" d="M73.93 115.213c.907-.015 1.776.156 2.879.568-.57.217-1.373.191-2.572.082-.395-.085-.348-.463-.308-.65"/><path fill="#F9DF38" d="M52.062 96.419c.802-1.205 1.721-2.17 3.036-3.13.395.007.694.144.594.36-.19.364-.28.514-.376.745.022.255.103.4.452.76.921 1.059 1.628 1.874 2.31 3.031-.025.797-.025 1.252-.249 1.87-.452.45-.681.737-1.183.898-1.11-.648-1.947-1.17-2.784-1.693 0 0-.044-.125-.147-.376-.246-.53-.464-.722-.758-.828-.26-.466-.519-.932-.895-1.637"/><path fill="#593504" d="M57.012 108.012c-3.016-.831-4.358-2.64-2.929-5.804.933.603 1.42 1.212 2.037 2.142a96 96 0 0 1 .905 3.668s-.01-.012-.013-.006"/><path fill="#AD7307" d="M55.99 104.028c-.487-.608-.974-1.217-1.64-2.06-.27-.851-.36-1.467-.47-2.395.82.21 1.656.732 2.833 1.541.476.478.577.687.459 1.276-.516.789-.849 1.214-1.182 1.638M53.025 98.263c.226-.1.444.091.633.586-.226.087-.43-.111-.633-.586"/><path fill="#E5AF10" d="M91.477 147.883c.562-1.318 1.014-2.289 1.356-3.583-.11-.324.11-.286.518-.283.81.001 1.212 0 1.714.406-.148 3.747-.396 7.087-.986 10.499-1.276.773-2.21 1.475-3.145 2.176-.295.115-.6.177-1.15.173.372-3.023.977-6.031 1.693-9.388"/><path fill="#FBF7DD" d="M105.15 158.012c-2.848.083-5.54.086-8.671.151-.654.025-.869-.013-1.406.012-.322.063-.497-.1-.598-.156-.1-.057-.206-.465.034-.725.621-.349 1.003-.438 1.788-.46 2.496-.23 4.59-.525 6.682-.82 0 0-.084.113.165.342.79.373 1.33.517 1.87.66 0 0 .29.335.425.512.134.177-.133.404-.29.484"/><path fill="#AD7307" d="M95.893 156.767c-.381.089-.763.178-1.432.322-1.097.038-1.906.021-3.121.006.529-.698 1.463-1.4 3.05-2.158 1.28.026 1.907.11 2.428.41-.379.618-.652 1.019-.925 1.42"/><path fill="#FBF39B" d="M96.924 155.13c-.627-.084-1.255-.167-2.193-.265-.062-3.355.186-6.695.549-10.63.638-.807 1.162-1.019 1.685-1.23.397.054.794.11 1.391.467.835.964 1.47 1.626 2.105 2.287.872 2.795 1.744 5.59 2.092 8.778-2.225.46-3.927.526-5.629.592"/><path fill="#D3A81E" d="M96.818 155.347c1.808-.284 3.51-.35 5.628-.506.436.121.455.332.503.857-2.063.61-4.156.906-6.652 1.135-.13-.467.142-.868.521-1.486"/><path fill="#F6E671" d="M100.42 145.55c-.594-.452-1.229-1.114-1.764-2.054.406-.286.711-.295 1.477-.285.324.388.188.758.117 1.416.065.289.128.712.17.922"/><path fill="#F4EB8A" d="M105.004 156.808c-.53.065-1.07-.079-1.839-.384.225-.233.677-.304 1.467-.308.337.067.362.483.372.692"/><path fill="#A36A0F" d="M44.977 95.648c-1.672-1.106-5.541-1.653-1.338-4.987.494.532.655 1.254 1.073 2.588.29 1.032.324 1.453.357 1.874 0 0-.09.346-.092.525"/><path fill="#8F5805" d="M45.403 95.053c-.367-.35-.4-.772-.477-1.503.746-.402 1.536-.494 2.938-.59a4 4 0 0 1 1.028.112s.054.471.074.707c-1.062.56-2.146.882-3.563 1.274"/><path fill="#E7B315" d="M96.958 142.755c-.516.461-1.04.673-1.778 1.072-.617.19-1.018.191-1.718.205-.35-.754-.4-1.519-.446-2.668.425-.353.845-.322 1.917-.197 1.107.179 1.563.262 2.019.346-.072.33-.072.662.006 1.242"/><path fill="#FEFCC6" d="M97.333 141.438c-.837-.009-1.293-.092-2.084-.27-.334-.096-.205-.567-.107-.79 1.761-.171 3.424-.119 5.352.163-.749.428-1.764.625-3.161.897"/><path fill="#FBF7DD" d="M96.718 95.984c2.957-.031 5.661.013 8.82.37.444.673.436 1.034.19 1.496-.398.169-.557.236-1.037.27-.752.002-1.182.037-1.908.053-.488.03-.68.079-1.276.136-1.457.173-2.509.339-3.973.399-1.81-.21-3.208-.316-4.838-.524-.391-.156-.55-.21-.5-.49 1-.415 1.788-.605 2.803-.852.519-.177.768-.357.973-.597.165-.062.329-.124.746-.26"/><path fill="#F9EE8E" d="M94.773 96.899c-.789.19-1.577.38-2.986.853-3.354-.052-6.088-.386-8.77-.72.052 0 .08-.1.08-.1.101-.339.308-.59 1.018-.879.398-.122.79-.167.79-.167 3.069.054 6.137.11 9.608.41.403.246.26.603.26.603"/><path fill="#966107" d="M84.846 95.648c.06.238-.333.283-.528.259-.195-.025-.281-.483-.307-.714.355-.284.622-.135.835.455"/><path fill="#FAF4D2" d="M94.999 96.842c-.226.057-.083-.3-.031-.485s.533-.214.769-.163c.03.29-.22.47-.738.648"/><path fill="#A66C04" d="M69.467 94.302c.254-.37.512-.473 1.172-.677 1.117.08 1.83.26 2.91.471 2.102.672 3.836 1.315 5.922 1.997.35.04.496.39.529.817.034.428.039.908-.296.942-.781.001-1.229-.032-1.926-.257-1.07-.336-1.89-.48-3.037-.758-1.91-.68-3.492-1.225-5.075-1.771-.066-.166-.131-.331-.2-.764"/><path fill="#8A5305" d="M80.039 97.818s-.005-.48-.01-.721c.765-.184 1.532-.126 2.684-.117.384-.048.356.051.327.388-.017.56-.004.785-.366.92-1.127-.217-1.881-.343-2.635-.47"/><path fill="#F3C936" d="M49.194 93.03c-.302.042-.718-.075-.934-.085-.203-.215-.19-.42-.132-.934.778-.17 1.512-.03 2.615.155-.17.305-.709.563-1.55.863"/><path fill="#4B3105" d="M88.892 82.486c-.051.007-.266-.064-.342.023-.075.087-.077.224-.047.24.03.017.289.038.36-.07.07-.11.08-.2.029-.193"/><path fill="#E5AF10" d="M69.527 95.212c1.722.4 3.304.945 5.182 1.841.295.35.237.782-.132.82-1.594.1-2.819.16-4.262-.088-.598-.641-.978-.973-1.359-1.305.144-.374.288-.749.57-1.268"/><path fill="#C6890C" d="M58.103 97.843c-.707-.815-1.414-1.63-2.362-2.85-.241-.404-.42-.68-.42-.68.091-.15.181-.3.456-.637 1.12.4 2.054.989 3.256 2.144.478 1.376.688 2.185.67 2.874-.685-.363-1.142-.607-1.6-.851"/><path fill="#D9A117" d="M59.93 98.813c-.21-.808-.42-1.617-.68-2.742.711-.149 1.475.02 2.57.674.614 1.08.896 1.672 1.202 2.49.025.225.055.678-.225.706-.466.05-.653.07-.827.072.012-.02.026.024-.142-.203-.494-.415-.82-.604-1.34-.819-.195-.025-.557-.178-.557-.178"/><path fill="#A36A0F" d="M62.997 99.009c-.281-.592-.563-1.184-.93-2.1.974-.204 2.033-.083 3.768.033.852-.056 1.029-.109 1.205-.161 0 0 .024.2-.002.57-.02.744-.013 1.117-.408 1.538-1.48.072-2.556.096-3.633.12"/><path fill="#8A5906" d="M67.032 98.841a62 62 0 0 0-.037-1.399c.417-.446.851-.614 1.624-.871.718.24 1.098.573 1.531 1.46-.339.992-.731 1.429-1.39 1.769a29 29 0 0 1-1.728-.959"/><path fill="#E5AF10" d="M66.908 96.695c-.044.138-.22.19-.673.238-.07-.294.203-.4.673-.238"/><path fill="#3F2705" d="M41.82 101.932c-.27 1.058-.753 1.859-1.537 3.16-.734-1.238-1.23-2.073-2.014-3.05.92-.217 2.13-.292 3.551-.11"/><path fill="#784606" d="M37.988 109.007c-.016.014-.348-.247-.348-.247s.296 0 .343.1c.047.101.02.134.005.147"/><path fill="#905F04" d="M97.958 127.948c-1.707.374-3.413.75-5.497 1.153-4.068-1.001-7.752-2.064-11.457-3.05-2.055-.547-4.144-.967-6.217-1.444l.338-1.414c3.68.602 7.36 1.205 11.848 1.813 3.405.194 5.36-.352 5.299-3.685 1.474.168 2.605.415 3.723 1a83 83 0 0 1-1.02 4.048z"/><path fill="#B37A07" d="M85.965 121.957c-2.92-.584-6.117-.83-5.72-5.332 2.481.241 4.622.803 6.535 1.632-.424 1.411-.62 2.556-.815 3.7"/><path fill="#764C05" d="M91.928 121.4c.405 3.254-1.55 3.8-4.537 3.604-.391-.736-.39-1.463-.384-2.789.006-.599-.011-1.068.33-1.097.796-.074 1.25-.12 2.067-.118 1.083.165 1.804.282 2.524.4"/><path fill="#E7B315" d="M87.007 117.99c-2.14-.562-4.28-1.124-6.8-1.739-.788-.078-1.197-.103-1.906-.191-.059-.342.183-.62 1.043-1.021 1.667-.048 2.715.028 3.994.109.231.004.672-.138.666-.143-.007-.006-.022-.013.224.269 1.734.4 3.222.517 4.632.888-.315.724-.551 1.196-1.052 1.722-.443.072-.622.09-.801.106"/><path fill="#905F04" d="M86.78 118.257c.406-.284.585-.3 1.223-.281.46.037.86.196.663.42a65 65 0 0 0-1.67 2.751s.017.47.012.704c-.178.215-.351.195-.784.14-.063-1.178.132-2.323.556-3.734"/><path fill="#9B6304" d="M69.317 120.98c-.294-.402-.316-.857-.335-1.654.555-.131 1.107.08 1.833.537-.293.518-.76.791-1.498 1.117"/><path fill="#D0960B" d="M92.272 121.321c-1.064-.039-1.785-.156-2.74-.592-.023-1.079.19-1.84.759-2.498 1.815.318 3.274.532 5.142.774 1.776.08 3.142.13 4.721.328.876-.235 1.54-.617 2.42-.97.51.047.799.022 1.253.241 1.549.918 2.929 1.55 4.663 2.213 1.065.011 1.775-.01 2.744 0 .434.018.607.006 1.002.14.412.439.604.73.795 1.022 0 0-.02-.006-.03-.003-.905.536-1.801 1.07-3.324 1.816-4.974-.46-9.321-1.135-13.668-1.81-1.132-.246-2.263-.493-3.737-.66"/><path fill="#A66C04" d="M95.995 122.322c4.36.335 8.708 1.01 13.485 1.713-3.29 1.327-7.012 2.625-11.128 3.918-1.378-.526-2.363-1.048-3.376-1.584.336-1.24.67-2.474 1.019-4.047"/><path fill="#FEF9BE" d="M105.966 97.749c.008-.361.016-.722.017-1.353 1.063-.338 2.133-.406 3.605-.491.402.194.403.405.054.94-1.459.518-2.567.711-3.676.904"/><path fill="#C4850A" d="M116.734 95.22c.293.142.287.346.265.86-.813.388-1.61.467-2.602.37.55-.508 1.294-.839 2.337-1.23"/><path fill="#FCF5B3" d="M112.142 99.09c4.013 1.064 4.573 3.08 1.907 7.6-1.755 1.356-3.418 2.367-5.68 3.101-1.87-1.531-3.337-2.645-4.382-4.068-2.825-3.847-4.929-3.085-7.01.474-.597-1.04-.94-1.76-1.205-2.82.29-1.004.505-1.668.836-2.451.264-.294.382-.486.687-.809.216-.111.667-.295 1.108-.244 2.507-.066 4.573-.183 6.983-.253.802.004 1.26-.04 1.872-.008.153.076.486.148.486.148.746.836 1.491 1.671 1.913 2.835-1.481.129-2.64-.07-3.798-.269l.192 1.879 3.943-1.212c2.681.037 3.314-1.225 2.148-3.902"/><path fill="#F2C62A" d="M107.105 99.536c-.458.044-.917.088-1.724-.152-.36-.599-.366-.914-.368-1.23l.714-.304a48 48 0 0 1 3.905-.688c-.06.602-.46 1.214-1.353 1.906-.746.165-.973.294-1.174.468"/><path fill="#F3C936" d="M107.258 99.612c.048-.25.275-.379.722-.504.194-.042-.027.301-.132.477-.104.175-.437.103-.59.027"/><path fill="#F9E05C" d="M97.233 106.517c1.825-3.88 3.93-4.64 6.754-.794 1.045 1.423 2.511 2.537 4.012 4.068-4.519 1.244-9.272 2.177-14.005 3.205-1.21.262-2.356.824-4.004 1.633-.67.423-.87.461-1.403.452-.785-.111-1.233-.175-1.67-.64 1.622-1.043 3.287-1.572 4.822-2.355 1.814-.925 3.515-2.07 5.275-3.432.08-.92.15-1.529.219-2.137"/><path fill="#F9D741" d="M99.942 119.186c-1.367-.05-2.733-.102-4.514-.53-.43-1.076-.447-1.775-.463-2.474 2.751-.29 5.502-.579 8.996-.981 3.859-.48 6.976-.849 10.093-1.217.289.846.577 1.692.904 2.878-.293 1.696-.626 3.052-.966 4.765-.008.357-.485.349-.723.35-.43-.29-.62-.581-1.147-1.117-.639-.375-.91-.319-1.147-.074-.71.021-1.42.042-2.455-.255-.037-1.209.252-2.1.684-3.435l-5.545 1.222c-.286.067-.576.092-1.429 0-1.136.24-1.712.554-2.288.868"/><path fill="#E6BB34" d="M114.305 113.78c-3.368.572-6.485.94-9.97 1.257 4.71-1.699 9.79-3.347 15.248-4.945-1.423 1.195-3.225 2.339-5.278 3.687"/><path fill="#F2C62A" d="M94.598 116.136c.383.745.4 1.444.42 2.492-1.453.135-2.912-.08-4.996-.412-.803-.093-.981-.069-1.16-.044 0 0-.4-.16-.594-.25.041-.564.277-1.036.593-1.955.079-.448.061-.84.061-.84.199-.037.397-.075.894-.165 1.67.342 3.042.735 4.782 1.174"/><path fill="#DAA622" d="M125.159 113.092c1.822-.226 3.644-.452 5.663-.378-2.268 1.84-4.734 3.38-7.501 5.047-.853-.358-1.403-.844-1.82-1.682 1.307-1.23 2.483-2.108 3.658-2.987"/><path fill="#F9D741" d="M124.795 113.106c-.811.865-1.987 1.743-3.467 2.756-.507.103-.71.072-1.213-.03 1.238-.95 2.777-1.83 4.68-2.726"/><path fill="#E7B315" d="M97.003 108.966c-1.75 1.05-3.45 2.195-5.264 3.12-1.535.783-3.2 1.312-5.182 2.39-1.108.462-1.841.49-2.575.516 0 0 .015.007.093-.214.077-.222.161-.69.161-.69 2.398-1.65 1.49-2.287-.728-2.999-5.923-1.9-11.785-3.989-18.132-6.28-.46-.276-.666-.693-.536-.743s.387-.15.656-.21c.656-.63 1.043-1.198 1.769-1.798.792-.048 1.245-.066 2.005-.008 2.753 2.723 3.966-.662 5.765-.68 2.223 2.422 4.473 4.48 7.087 6.693 4.01.386 7.658.616 11.46.855.156.01.469-.001.572.225.682.09 1.26-.044 2.092-.185.42 0 .589.004.757.008"/><path fill="#9B6304" d="M73.25 112.384c-.243-.242-.264-.733-.265-.98 1.786.324 3.572.892 5.667 1.853.289.558.268.725.248.891-1.802-.507-3.604-1.015-5.65-1.764"/><path fill="#8A5305" d="M78.967 114.323c-.047-.341-.026-.508.01-.925 1.136.012 2.255.275 3.713.9.34.36.416.845.416.845-1.047-.076-2.095-.152-3.534-.264-.39-.036-.538-.38-.605-.556"/><path fill="#F6E671" d="M64.71 104.116s.206.417.316.622c-.453.25-1.017.295-2 .4-.42.059-.755.002-.736-.306.231-.538.476-.725 1.032-.843z"/><path fill="#AD7307" d="M83.338 115.148c-.232-.005-.309-.49-.32-.735.19-.272.393-.299.908-.326.31 0 .226.469.155.696-.07.227-.512.37-.743.365"/><path fill="#8A5305" d="M56.12 104.35c.203-.746.536-1.171 1.41-1.766 1.5.067 2.457.303 3.367.536-.048-.004-.078.088-.256.346.023.623.223.988.423 1.352-.03.228-.059.455-.139 1.024-.389.803-.726 1.265-.982 1.945-.67.218-1.42.218-2.544.224-.632-1.109-.89-2.224-1.28-3.66"/><path fill="#F9E05C" d="M61.306 104.847c-.442-.393-.642-.758-.358-1.403 1.021-.013 1.559.253 2.096.52-.278.143-.523.33-.872.747-.138.186-.624.164-.866.136"/><path fill="#F2CC2C" d="M63.322 103.989c-.815-.292-1.353-.558-2.196-.802-.307.021-.277-.07-.325-.37-.948-1.174-1.848-2.05-2.748-2.925 0-.455 0-.91.025-1.707.483-.098.94.146 1.625.509.228.12.59.272.976.507.695.436 1.006.636 1.317.836 0 0-.014-.043.092.197.38.422.654.605.917.779-.01-.009-.027-.03.1.252a50 50 0 0 0 2.122 2.65l-.387.151c-.5.016-.87-.018-1.518-.077"/><path fill="#F9E05C" d="M57.83 100.055c1.123.713 2.023 1.588 3.02 2.766-.863.066-1.82-.17-3.138-.6-.422-.42-.523-.629-.726-.98.162-.449.39-.736.843-1.186"/><path fill="#F4CE23" d="M55.316 94.394c.006-.081.184.195.21.355-.107.044-.188-.1-.21-.355"/><path fill="#B37A07" d="M83.048 98.378c-.012-.225-.025-.45-.06-1.01 2.711-.002 5.445.332 8.588.609.57-.004.729.05.84.363-.874.453-1.7.649-2.926.812-2.412-.28-4.427-.527-6.442-.774"/><path fill="#F3C936" d="M104.69 98.12c.325.35.331.665.347 1.217-2.06.353-4.127.47-6.642.367-.497-.443-.497-.667-.45-.891 1.053-.165 2.105-.33 3.702-.417.894.16 1.19.065 1.432-.204.43-.035.86-.07 1.612-.072"/><path fill="#D9A117" d="M97.534 98.708c.364.329.364.553.42.946.008.168-.443.352-.861.434a4.6 4.6 0 0 1-1.268.087c-2.219-.152-3.993-.27-5.81-.539l-.127-.452c.827-.195 1.654-.39 2.76-.742 1.678-.05 3.076.056 4.886.266"/><path fill="#ECDC7C" d="M102.783 98.173c.054.288-.242.383-.732.215.052-.136.244-.185.732-.215"/><path fill="#F4CE23" d="M89.49 99.152c.398.032.483.333.491.575s-.053.426-.42.395c-1.034.323-1.91.516-2.337 1.06-3.502 4.452-7.666 3.984-9.948-1.425.393-.804.573-1.387.752-1.97.447.033.895.066 1.676.065 1.089.093 1.843.219 2.97.435 2.389.338 4.404.585 6.816.865"/><path fill="#E6BB34" d="M77.778 97.595c.07.775-.109 1.358-.753 2.131-.633.188-.802.186-1.108-.075l-.971-1.816s.058-.432.09-.647c.852-.073 1.672.07 2.742.407"/><path fill="#EFC820" d="M74.577 97.874c.647.48.925 1 1.234 2.01-.23.701-.489.91-.748 1.12-1.827.384-3.04 3.77-5.779.7-.281-.883-.27-1.345-.258-1.808.393-.436.785-.873 1.343-1.555 1.39-.307 2.614-.368 4.208-.467"/><path fill="#F3C936" d="M68.76 99.8c.255.559.243 1.021.217 1.83-.467.362-.92.38-1.705.402-.332.004-.28-.011-.487-.224-.764-.378-1.322-.544-2.2-.76-.749-.056-1.178-.06-1.607-.064 0 0 .017.02.087-.246.05-.452.031-.639.012-.825 0 0-.03-.453-.055-.679 1.052-.249 2.129-.273 3.608-.345.89.24 1.377.527 2.13.91"/><path fill="#C6890C" d="M62.797 99.94c.3.16.318.346.278.807-.333.092-.607-.09-.999-.494.068-.241.255-.263.721-.312M61.828 99.81c-.143.027-.454-.173-.954-.583.135-.021.46.168.954.583"/><path fill="#B37A07" d="M88.666 118.396c.375-.249.553-.273 1-.283.056.776-.157 1.537-.497 2.57-.581.316-1.036.36-1.832.435.15-.813.64-1.656 1.329-2.722"/><path fill="#AD7307" d="M84.228 115.274c.488-.309 1.221-.336 2.316-.397.81.029 1.258.093 2.043.204.335.047.353.438.352.633-1.489.077-2.977-.04-4.711-.44"/><path fill="#F2C62A" d="M103.827 118.604c1.554-.665 3.276-1.045 5.377-1.508-.432 1.335-.72 2.226-1.039 3.403-1.41-.346-2.79-.977-4.338-1.895M100.154 119.333c.364-.461.94-.776 1.86-1.045-.32.428-.984.81-1.86 1.045M111.234 120.816c-.021-.275.25-.331.667-.102-.06.11-.233.12-.667.102"/><path fill="#F9DF38" d="M90.024 99.878c1.808.027 3.582.145 5.828.514.47.25.638.654.638.654-.213.663-.427 1.327-1.032 2.473-1.495.823-2.599 1.163-3.898 1.28-.684-.838-1.173-1.454-1.643-2.392.016-.967.013-1.61.01-2.254 0 0 .063-.184.097-.275"/><path fill="#FBEE86" d="M91.756 105.022c1.103-.34 2.207-.68 3.625-1.163.657.577.999 1.297 1.597 2.338.185.928.116 1.536.036 2.457-.18.308-.347.303-.923.123-.952-.071-1.496.034-2.04.14 0 0-.313.01-.548-.349-.74-1.421-1.244-2.484-1.747-3.546"/><path fill="#F9EE8E" d="M109.997 102.996q-1.975.602-3.946 1.209l-.192-1.879c1.158.2 2.317.398 3.811.639.336.042.33.035.327.031"/><path fill="#FBEE86" d="M96.608 100.926c-.118.12-.286-.283-.312-.5-.027-.216.378-.255.58-.226.114.24-.004.432-.268.726"/><path fill="#F4EB8A" d="M89.561 100.122c.37.675.372 1.318.138 2.562-2.804 2.14-5.372 3.682-7.94 5.223-2.251-2.057-4.501-4.115-6.724-6.538.287-.575.546-.784.913-1.226.275-.231.444-.229.864-.196 2.746 5.22 6.91 5.687 10.412 1.235.428-.544 1.303-.737 2.337-1.06"/><path fill="#D3A81E" d="M82.122 108.063c2.205-1.697 4.773-3.239 7.56-5.057.705.34 1.194.955 1.878 1.794a36 36 0 0 1 1.786 3.76c-3.566.12-7.213-.11-11.224-.497"/><path fill="#C6890C" d="M63.105 101.265c.302-.277.731-.273 1.695-.018 1.087.425 1.64.6 2.191.774 0 0-.05.015-.058.042-.394.595-.781 1.164-1.437 1.793-.934-.73-1.6-1.52-2.391-2.59"/><path fill="#FCF5B3" d="M94.154 109.143c.441-.332.985-.437 1.684-.36-.423.316-1.002.45-1.684.36"/><path fill="#EFC820" d="M66.785 101.808c-.346.038-.898-.136-1.664-.51.342-.034.9.132 1.664.51"/></svg>